<?xml version="1.0" encoding="utf-8" standalone="no"?>
<!DOCTYPE svg PUBLIC "-//W3C//DTD SVG 1.1//EN"
  "http://www.w3.org/Graphics/SVG/1.1/DTD/svg11.dtd">
<svg xmlns:xlink="http://www.w3.org/1999/xlink" width="824.35pt" height="1070.980789pt" viewBox="0 0 824.35 1070.980789" xmlns="http://www.w3.org/2000/svg" version="1.1">
 <metadata>
  <rdf:RDF xmlns:dc="http://purl.org/dc/elements/1.1/" xmlns:cc="http://creativecommons.org/ns#" xmlns:rdf="http://www.w3.org/1999/02/22-rdf-syntax-ns#">
   <cc:Work>
    <dc:type rdf:resource="http://purl.org/dc/dcmitype/StillImage"/>
    <dc:date>2026-07-24T12:59:37.442424</dc:date>
    <dc:format>image/svg+xml</dc:format>
    <dc:creator>
     <cc:Agent>
      <dc:title>Matplotlib v3.10.8, https://matplotlib.org/</dc:title>
     </cc:Agent>
    </dc:creator>
   </cc:Work>
  </rdf:RDF>
 </metadata>
 <defs>
  <style type="text/css">*{stroke-linejoin: round; stroke-linecap: butt}</style>
 </defs>
 <g id="figure_1">
  <g id="patch_1">
   <path d="M 0 1070.980789 
L 824.35 1070.980789 
L 824.35 0 
L 0 0 
z
" style="fill: #fbfaf8"/>
  </g>
  <g id="axes_1">
   <g id="patch_2">
    <path d="M 216.85 165.614597 
L 817.15 165.614597 
L 817.15 24.238281 
L 216.85 24.238281 
z
" style="fill: #fbfaf8"/>
   </g>
   <g id="matplotlib.axis_1"/>
   <g id="matplotlib.axis_2">
    <g id="ytick_1">
     <g id="line2d_1"/>
     <g id="text_1">
      <text style="font-size: 10.5px; font-family: 'Helvetica Neue'; text-anchor: end; fill: #14110f" x="213.35" y="44.369384" transform="rotate(-0 213.35 44.369384)">Reached Phase 1</text>
     </g>
    </g>
    <g id="ytick_2">
     <g id="line2d_2"/>
     <g id="text_2">
      <text style="font-size: 10.5px; font-family: 'Helvetica Neue'; text-anchor: end; fill: #14110f" x="213.35" y="80.573306" transform="rotate(-0 213.35 80.573306)">Reached Phase 2</text>
     </g>
    </g>
    <g id="ytick_3">
     <g id="line2d_3"/>
     <g id="text_3">
      <text style="font-size: 10.5px; font-family: 'Helvetica Neue'; text-anchor: end; fill: #14110f" x="213.35" y="116.777228" transform="rotate(-0 213.35 116.777228)">Reached Phase 3</text>
     </g>
    </g>
    <g id="ytick_4">
     <g id="line2d_4"/>
     <g id="text_4">
      <text style="font-size: 10.5px; font-family: 'Helvetica Neue'; text-anchor: end; fill: #14110f" x="213.35" y="152.98115" transform="rotate(-0 213.35 152.98115)">Approved</text>
     </g>
    </g>
   </g>
   <g id="patch_3">
    <path d="M 216.85 30.664477 
L 630.85 30.664477 
L 630.85 50.576635 
L 216.85 50.576635 
z
" clip-path="url(#p8c9abcc0bb)" style="fill: #1f6fd0; stroke: #fbfaf8; stroke-width: 0.5; stroke-linejoin: miter"/>
   </g>
   <g id="patch_4">
    <path d="M 216.85 66.868399 
L 437.49608 66.868399 
L 437.49608 86.780557 
L 216.85 86.780557 
z
" clip-path="url(#p8c9abcc0bb)" style="fill: #1f6fd0; stroke: #fbfaf8; stroke-width: 0.5; stroke-linejoin: miter"/>
   </g>
   <g id="patch_5">
    <path d="M 216.85 103.072321 
L 320.181147 103.072321 
L 320.181147 122.984479 
L 216.85 122.984479 
z
" clip-path="url(#p8c9abcc0bb)" style="fill: #1f6fd0; stroke: #fbfaf8; stroke-width: 0.5; stroke-linejoin: miter"/>
   </g>
   <g id="patch_6">
    <path d="M 216.85 139.276243 
L 254.314691 139.276243 
L 254.314691 159.188401 
L 216.85 159.188401 
z
" clip-path="url(#p8c9abcc0bb)" style="fill: #2f8f5b; stroke: #fbfaf8; stroke-width: 0.5; stroke-linejoin: miter"/>
   </g>
   <g id="text_5">
    <text style="font-weight: 700; font-size: 10px; font-family: 'Helvetica Neue'; text-anchor: start; fill: #14110f" x="637.06" y="43.290087" transform="rotate(-0 637.06 43.290087)">60,070   (100% of Ph1 entrants)</text>
   </g>
   <g id="text_6">
    <text style="font-weight: 700; font-size: 10px; font-family: 'Helvetica Neue'; text-anchor: start; fill: #14110f" x="443.70608" y="79.494009" transform="rotate(-0 443.70608 79.494009)">32,015   (53% of Ph1 entrants)</text>
   </g>
   <g id="text_7">
    <text style="font-weight: 700; font-size: 10px; font-family: 'Helvetica Neue'; text-anchor: start; fill: #14110f" x="326.391147" y="115.697931" transform="rotate(-0 326.391147 115.697931)">14,993   (25% of Ph1 entrants)</text>
   </g>
   <g id="text_8">
    <text style="font-weight: 700; font-size: 10px; font-family: 'Helvetica Neue'; text-anchor: start; fill: #14110f" x="260.524691" y="151.901853" transform="rotate(-0 260.524691 151.901853)">5,436   (9% of Ph1 entrants)</text>
   </g>
   <g id="patch_7">
    <path d="M 627.686617 52.875191 
Q 534.003651 58.992025 441.213211 65.050583 
" style="fill: none; stroke: #938b82; stroke-width: 0.8; stroke-linecap: round"/>
    <path d="M 444.716749 66.525447 
L 441.213211 65.050583 
L 444.495225 63.132671 
" style="fill: none; stroke: #938b82; stroke-width: 0.8; stroke-linecap: round"/>
   </g>
   <g id="text_9">
    <text style="font-style: italic; font-size: 8.5px; font-family: 'Helvetica Neue'; text-anchor: start; fill: #5b544e" x="631.678" y="52.205811" transform="rotate(-0 631.678 52.205811)">53% advance to Ph2</text>
   </g>
   <g id="patch_8">
    <path d="M 434.337646 90.465049 
Q 378.667719 95.857777 323.888051 101.164266 
" style="fill: none; stroke: #938b82; stroke-width: 0.8; stroke-linecap: round"/>
    <path d="M 327.436121 102.528524 
L 323.888051 101.164266 
L 327.108299 99.144365 
" style="fill: none; stroke: #938b82; stroke-width: 0.8; stroke-linecap: round"/>
   </g>
   <g id="text_10">
    <text style="font-style: italic; font-size: 8.5px; font-family: 'Helvetica Neue'; text-anchor: start; fill: #5b544e" x="438.32408" y="88.409733" transform="rotate(-0 438.32408 88.409733)">47% advance to Ph3</text>
   </g>
   <g id="patch_9">
    <path d="M 329.350634 128.532692 
Q 293.240842 132.967772 258.018807 137.293816 
" style="fill: none; stroke: #938b82; stroke-width: 0.8; stroke-linecap: round"/>
    <path d="M 261.600689 138.566657 
L 258.018807 137.293816 
L 261.186209 135.192015 
" style="fill: none; stroke: #938b82; stroke-width: 0.8; stroke-linecap: round"/>
   </g>
   <g id="text_11">
    <text style="font-style: italic; font-size: 8.5px; font-family: 'Helvetica Neue'; text-anchor: start; fill: #5b544e" x="321.009147" y="124.613655" transform="rotate(-0 321.009147 124.613655)">36% of Ph3 entrants approved</text>
   </g>
   <g id="text_12">
    <text style="font-weight: 700; font-size: 11.5px; font-family: 'Helvetica Neue'; text-anchor: start; fill: #14110f" x="216.85" y="16.238281" transform="rotate(-0 216.85 16.238281)">A. Where programs stop  |  attrition through the pipeline</text>
   </g>
  </g>
  <g id="axes_2">
   <g id="patch_10">
    <path d="M 216.85 709.389796 
L 817.15 709.389796 
L 817.15 300.969328 
L 216.85 300.969328 
z
" style="fill: #fbfaf8"/>
   </g>
   <g id="matplotlib.axis_3"/>
   <g id="matplotlib.axis_4">
    <g id="ytick_5">
     <g id="line2d_5"/>
     <g id="text_13">
      <text style="font-size: 10px; font-family: 'Helvetica Neue'; text-anchor: end; fill: #14110f" x="213.35" y="695.703058" transform="rotate(-0 213.35 695.703058)">Manufacturing / supply</text>
     </g>
    </g>
    <g id="ytick_6">
     <g id="line2d_6"/>
     <g id="text_14">
      <text style="font-size: 10px; font-family: 'Helvetica Neue'; text-anchor: end; fill: #14110f" x="213.35" y="666.869635" transform="rotate(-0 213.35 666.869635)">PK / PD / formulation</text>
     </g>
    </g>
    <g id="ytick_7">
     <g id="line2d_7"/>
     <g id="text_15">
      <text style="font-size: 10px; font-family: 'Helvetica Neue'; text-anchor: end; fill: #14110f" x="213.35" y="638.204963" transform="rotate(-0 213.35 638.204963)">Competitive landscape</text>
     </g>
    </g>
    <g id="ytick_8">
     <g id="line2d_8"/>
     <g id="text_16">
      <text style="font-size: 10px; font-family: 'Helvetica Neue'; text-anchor: end; fill: #14110f" x="213.35" y="609.455915" transform="rotate(-0 213.35 609.455915)">COVID-19 disruption</text>
     </g>
    </g>
    <g id="ytick_9">
     <g id="line2d_9"/>
     <g id="text_17">
      <text style="font-size: 10px; font-family: 'Helvetica Neue'; text-anchor: end; fill: #14110f" x="213.35" y="580.706868" transform="rotate(-0 213.35 580.706868)">Safety / toxicity</text>
     </g>
    </g>
    <g id="ytick_10">
     <g id="line2d_10"/>
     <g id="text_18">
      <text style="font-size: 10px; font-family: 'Helvetica Neue'; text-anchor: end; fill: #14110f" x="213.35" y="551.957821" transform="rotate(-0 213.35 551.957821)">Planned (per protocol)</text>
     </g>
    </g>
    <g id="ytick_11">
     <g id="line2d_11"/>
     <g id="text_19">
      <text style="font-size: 10px; font-family: 'Helvetica Neue'; text-anchor: end; fill: #14110f" x="213.35" y="523.208773" transform="rotate(-0 213.35 523.208773)">Regulatory / administrative</text>
     </g>
    </g>
    <g id="ytick_12">
     <g id="line2d_12"/>
     <g id="text_20">
      <text style="font-size: 10px; font-family: 'Helvetica Neue'; text-anchor: end; fill: #14110f" x="213.35" y="494.459726" transform="rotate(-0 213.35 494.459726)">Enrollment / operational</text>
     </g>
    </g>
    <g id="ytick_13">
     <g id="line2d_13"/>
     <g id="text_21">
      <text style="font-size: 10px; font-family: 'Helvetica Neue'; text-anchor: end; fill: #14110f" x="213.35" y="465.710678" transform="rotate(-0 213.35 465.710678)">Efficacy (explicit termination)</text>
     </g>
    </g>
    <g id="ytick_14">
     <g id="line2d_14"/>
     <g id="text_22">
      <text style="font-size: 10px; font-family: 'Helvetica Neue'; text-anchor: end; fill: #14110f" x="213.35" y="436.877256" transform="rotate(-0 213.35 436.877256)">Unclassified termination</text>
     </g>
    </g>
    <g id="ytick_15">
     <g id="line2d_15"/>
     <g id="text_23">
      <text style="font-size: 10px; font-family: 'Helvetica Neue'; text-anchor: end; fill: #14110f" x="213.35" y="408.212584" transform="rotate(-0 213.35 408.212584)">Commercial / strategic</text>
     </g>
    </g>
    <g id="ytick_16">
     <g id="line2d_16"/>
     <g id="text_24">
      <text style="font-size: 10px; font-family: 'Helvetica Neue'; text-anchor: end; fill: #14110f" x="213.35" y="379.463536" transform="rotate(-0 213.35 379.463536)">Silent efficacy fail (Ph3 complete, no approval)</text>
     </g>
    </g>
    <g id="ytick_17">
     <g id="line2d_17"/>
     <g id="text_25">
      <text style="font-size: 10px; font-family: 'Helvetica Neue'; text-anchor: end; fill: #14110f" x="213.35" y="350.714489" transform="rotate(-0 213.35 350.714489)">Phase 2 stall (Ph2 complete, program halted)</text>
     </g>
    </g>
    <g id="ytick_18">
     <g id="line2d_18"/>
     <g id="text_26">
      <text style="font-size: 10px; font-family: 'Helvetica Neue'; text-anchor: end; fill: #14110f" x="213.35" y="321.965441" transform="rotate(-0 213.35 321.965441)">Phase 1 stall (Ph1 complete, program halted)</text>
     </g>
    </g>
   </g>
   <g id="patch_11">
    <path d="M 216.85 701.535556 
L 218.851 701.535556 
L 218.851 682.561184 
L 216.85 682.561184 
z
" clip-path="url(#p03cae5e895)" style="fill: #e2673a; stroke: #fbfaf8; stroke-width: 0.5; stroke-linejoin: miter"/>
   </g>
   <g id="patch_12">
    <path d="M 216.85 672.786508 
L 218.9844 672.786508 
L 218.9844 653.812137 
L 216.85 653.812137 
z
" clip-path="url(#p03cae5e895)" style="fill: #1f6fd0; stroke: #fbfaf8; stroke-width: 0.5; stroke-linejoin: miter"/>
   </g>
   <g id="patch_13">
    <path d="M 216.85 644.037461 
L 221.519 644.037461 
L 221.519 625.06309 
L 216.85 625.06309 
z
" clip-path="url(#p03cae5e895)" style="fill: #e2673a; stroke: #fbfaf8; stroke-width: 0.5; stroke-linejoin: miter"/>
   </g>
   <g id="patch_14">
    <path d="M 216.85 615.288414 
L 224.9874 615.288414 
L 224.9874 596.314042 
L 216.85 596.314042 
z
" clip-path="url(#p03cae5e895)" style="fill: #c7c0b6; stroke: #fbfaf8; stroke-width: 0.5; stroke-linejoin: miter"/>
   </g>
   <g id="patch_15">
    <path d="M 216.85 586.539366 
L 225.521 586.539366 
L 225.521 567.564995 
L 216.85 567.564995 
z
" clip-path="url(#p03cae5e895)" style="fill: #1f6fd0; stroke: #fbfaf8; stroke-width: 0.5; stroke-linejoin: miter"/>
   </g>
   <g id="patch_16">
    <path d="M 216.85 557.790319 
L 226.3214 557.790319 
L 226.3214 538.815947 
L 216.85 538.815947 
z
" clip-path="url(#p03cae5e895)" style="fill: #c7c0b6; stroke: #fbfaf8; stroke-width: 0.5; stroke-linejoin: miter"/>
   </g>
   <g id="patch_17">
    <path d="M 216.85 529.041271 
L 228.9894 529.041271 
L 228.9894 510.0669 
L 216.85 510.0669 
z
" clip-path="url(#p03cae5e895)" style="fill: #e2673a; stroke: #fbfaf8; stroke-width: 0.5; stroke-linejoin: miter"/>
   </g>
   <g id="patch_18">
    <path d="M 216.85 500.292224 
L 254.0686 500.292224 
L 254.0686 481.317853 
L 216.85 481.317853 
z
" clip-path="url(#p03cae5e895)" style="fill: #e2673a; stroke: #fbfaf8; stroke-width: 0.5; stroke-linejoin: miter"/>
   </g>
   <g id="patch_19">
    <path d="M 216.85 471.543177 
L 268.0756 471.543177 
L 268.0756 452.568805 
L 216.85 452.568805 
z
" clip-path="url(#p03cae5e895)" style="fill: #1f6fd0; stroke: #fbfaf8; stroke-width: 0.5; stroke-linejoin: miter"/>
   </g>
   <g id="patch_20">
    <path d="M 216.85 442.794129 
L 285.2842 442.794129 
L 285.2842 423.819758 
L 216.85 423.819758 
z
" clip-path="url(#p03cae5e895)" style="fill: #c7c0b6; stroke: #fbfaf8; stroke-width: 0.5; stroke-linejoin: miter"/>
   </g>
   <g id="patch_21">
    <path d="M 216.85 414.045082 
L 383.8668 414.045082 
L 383.8668 395.07071 
L 216.85 395.07071 
z
" clip-path="url(#p03cae5e895)" style="fill: #e2673a; stroke: #fbfaf8; stroke-width: 0.5; stroke-linejoin: miter"/>
   </g>
   <g id="patch_22">
    <path d="M 216.85 385.296034 
L 430.29 385.296034 
L 430.29 366.321663 
L 216.85 366.321663 
z
" clip-path="url(#p03cae5e895)" style="fill: #1f6fd0; stroke: #fbfaf8; stroke-width: 0.5; stroke-linejoin: miter"/>
   </g>
   <g id="patch_23">
    <path d="M 216.85 356.546987 
L 473.7784 356.546987 
L 473.7784 337.572616 
L 216.85 337.572616 
z
" clip-path="url(#p03cae5e895)" style="fill: url(#he930d27bba); stroke: #fbfaf8; stroke-width: 0.5; stroke-linejoin: miter"/>
   </g>
   <g id="patch_24">
    <path d="M 216.85 327.79794 
L 709.3628 327.79794 
L 709.3628 308.823568 
L 216.85 308.823568 
z
" clip-path="url(#p03cae5e895)" style="fill: url(#hefa908c9c3); stroke: #fbfaf8; stroke-width: 0.5; stroke-linejoin: miter"/>
   </g>
   <g id="text_27">
    <text style="font-weight: 700; font-size: 10px; font-family: 'Helvetica Neue'; text-anchor: start; fill: #14110f" x="226.855" y="694.633526" transform="rotate(-0 226.855 694.633526)">0.1%</text>
   </g>
   <g id="text_28">
    <text style="font-weight: 700; font-size: 10px; font-family: 'Helvetica Neue'; text-anchor: start; fill: #14110f" x="226.9884" y="665.884479" transform="rotate(-0 226.9884 665.884479)">0.2%</text>
   </g>
   <g id="text_29">
    <text style="font-weight: 700; font-size: 10px; font-family: 'Helvetica Neue'; text-anchor: start; fill: #14110f" x="229.523" y="637.135432" transform="rotate(-0 229.523 637.135432)">0.3%</text>
   </g>
   <g id="text_30">
    <text style="font-weight: 700; font-size: 10px; font-family: 'Helvetica Neue'; text-anchor: start; fill: #14110f" x="232.9914" y="608.386384" transform="rotate(-0 232.9914 608.386384)">0.6%</text>
   </g>
   <g id="text_31">
    <text style="font-weight: 700; font-size: 10px; font-family: 'Helvetica Neue'; text-anchor: start; fill: #14110f" x="233.525" y="579.637337" transform="rotate(-0 233.525 579.637337)">0.7%</text>
   </g>
   <g id="text_32">
    <text style="font-weight: 700; font-size: 10px; font-family: 'Helvetica Neue'; text-anchor: start; fill: #14110f" x="234.3254" y="550.888289" transform="rotate(-0 234.3254 550.888289)">0.7%</text>
   </g>
   <g id="text_33">
    <text style="font-weight: 700; font-size: 10px; font-family: 'Helvetica Neue'; text-anchor: start; fill: #14110f" x="236.9934" y="522.139242" transform="rotate(-0 236.9934 522.139242)">0.9%</text>
   </g>
   <g id="text_34">
    <text style="font-weight: 700; font-size: 10px; font-family: 'Helvetica Neue'; text-anchor: start; fill: #14110f" x="262.0726" y="493.390195" transform="rotate(-0 262.0726 493.390195)">3%</text>
   </g>
   <g id="text_35">
    <text style="font-weight: 700; font-size: 10px; font-family: 'Helvetica Neue'; text-anchor: start; fill: #14110f" x="276.0796" y="464.641147" transform="rotate(-0 276.0796 464.641147)">4%</text>
   </g>
   <g id="text_36">
    <text style="font-weight: 700; font-size: 10px; font-family: 'Helvetica Neue'; text-anchor: start; fill: #14110f" x="293.2882" y="435.8921" transform="rotate(-0 293.2882 435.8921)">5%</text>
   </g>
   <g id="text_37">
    <text style="font-weight: 700; font-size: 10px; font-family: 'Helvetica Neue'; text-anchor: start; fill: #14110f" x="391.8708" y="407.143052" transform="rotate(-0 391.8708 407.143052)">13%</text>
   </g>
   <g id="text_38">
    <text style="font-weight: 700; font-size: 10px; font-family: 'Helvetica Neue'; text-anchor: start; fill: #14110f" x="438.294" y="378.394005" transform="rotate(-0 438.294 378.394005)">16%</text>
   </g>
   <g id="text_39">
    <text style="font-weight: 700; font-size: 10px; font-family: 'Helvetica Neue'; text-anchor: start; fill: #14110f" x="481.7824" y="349.644958" transform="rotate(-0 481.7824 349.644958)">19%</text>
   </g>
   <g id="text_40">
    <text style="font-weight: 700; font-size: 10px; font-family: 'Helvetica Neue'; text-anchor: start; fill: #14110f" x="717.3668" y="320.89591" transform="rotate(-0 717.3668 320.89591)">37%</text>
   </g>
   <g id="text_41">
    <text style="font-style: italic; font-size: 8.5px; font-family: 'Helvetica Neue'; text-anchor: end; fill: #938b82" x="817.15" y="727.855378" transform="rotate(-0 817.15 727.855378)">hatched bars = weaker inference (program stalled, no explicit reason)</text>
   </g>
   <g id="text_42">
    <text style="font-weight: 700; font-size: 11.5px; font-family: 'Helvetica Neue'; text-anchor: start; fill: #14110f" x="216.85" y="292.969328" transform="rotate(-0 216.85 292.969328)">B. Why they stop  |  overall failure reasons  (n=55,133 programs)</text>
   </g>
   <g id="legend_1">
    <g id="patch_25">
     <path d="M 635.021641 675.397608 
L 644.521641 675.397608 
L 644.521641 666.895108 
L 635.021641 666.895108 
z
" style="fill: #1f6fd0"/>
    </g>
    <g id="text_43">
     <text style="font-size: 9.5px; font-family: 'Helvetica Neue'; text-anchor: start; fill: #5b544e" x="652.121641" y="674.400108" transform="rotate(-0 652.121641 674.400108)">Biology (efficacy / safety / PK)  ·  40%</text>
    </g>
    <g id="patch_26">
     <path d="M 635.021641 689.638702 
L 644.521641 689.638702 
L 644.521641 681.136202 
L 635.021641 681.136202 
z
" style="fill: #e2673a"/>
    </g>
    <g id="text_44">
     <text style="font-size: 9.5px; font-family: 'Helvetica Neue'; text-anchor: start; fill: #5b544e" x="652.121641" y="688.641202" transform="rotate(-0 652.121641 688.641202)">Business &amp; operational  ·  17%</text>
    </g>
    <g id="patch_27">
     <path d="M 635.021641 703.765499 
L 644.521641 703.765499 
L 644.521641 695.262999 
L 635.021641 695.262999 
z
" style="fill: #c7c0b6"/>
    </g>
    <g id="text_45">
     <text style="font-size: 9.5px; font-family: 'Helvetica Neue'; text-anchor: start; fill: #5b544e" x="652.121641" y="702.767999" transform="rotate(-0 652.121641 702.767999)">Other / undisclosed  ·  43%</text>
    </g>
   </g>
  </g>
  <g id="axes_3">
   <g id="patch_28">
    <path d="M 216.85 1033.246281 
L 817.15 1033.246281 
L 817.15 844.744527 
L 216.85 844.744527 
z
" style="fill: #fbfaf8"/>
   </g>
   <g id="matplotlib.axis_5"/>
   <g id="matplotlib.axis_6">
    <g id="ytick_19">
     <g id="line2d_19"/>
     <g id="text_46">
      <text style="font-size: 10.5px; font-family: 'DejaVu Sans Mono', 'Bitstream Vera Sans Mono', 'Computer Modern Typewriter', 'Andale Mono', 'Nimbus Mono L', 'Courier New', 'Courier', 'Fixed', 'Terminal', monospace; text-anchor: end; fill: #14110f" x="213.35" y="879.070224" transform="rotate(-0 213.35 879.070224)">Failed at Ph1   n=26,841</text>
     </g>
    </g>
    <g id="ytick_20">
     <g id="line2d_20"/>
     <g id="text_47">
      <text style="font-size: 10.5px; font-family: 'DejaVu Sans Mono', 'Bitstream Vera Sans Mono', 'Computer Modern Typewriter', 'Andale Mono', 'Nimbus Mono L', 'Courier New', 'Courier', 'Fixed', 'Terminal', monospace; text-anchor: end; fill: #14110f" x="213.35" y="943.012475" transform="rotate(-0 213.35 943.012475)">Failed at Ph2   n=16,139</text>
     </g>
    </g>
    <g id="ytick_21">
     <g id="line2d_21"/>
     <g id="text_48">
      <text style="font-size: 10.5px; font-family: 'DejaVu Sans Mono', 'Bitstream Vera Sans Mono', 'Computer Modern Typewriter', 'Andale Mono', 'Nimbus Mono L', 'Courier New', 'Courier', 'Fixed', 'Terminal', monospace; text-anchor: end; fill: #14110f" x="213.35" y="1006.954725" transform="rotate(-0 213.35 1006.954725)">Failed at Ph3   n=12,153</text>
     </g>
    </g>
   </g>
   <g id="patch_29">
    <path d="M 216.85 853.312789 
L 216.85 853.312789 
L 216.85 896.793519 
L 216.85 896.793519 
z
" clip-path="url(#p883968e230)" style="fill: url(#he930d27bba); stroke: #fbfaf8; stroke-width: 0.5; stroke-linejoin: miter"/>
   </g>
   <g id="patch_30">
    <path d="M 216.85 917.255039 
L 611.867411 917.255039 
L 611.867411 960.735769 
L 216.85 960.735769 
z
" clip-path="url(#p883968e230)" style="fill: url(#he930d27bba); stroke: #fbfaf8; stroke-width: 0.5; stroke-linejoin: miter"/>
   </g>
   <g id="patch_31">
    <path d="M 216.85 981.197289 
L 216.85 981.197289 
L 216.85 1024.67802 
L 216.85 1024.67802 
z
" clip-path="url(#p883968e230)" style="fill: url(#he930d27bba); stroke: #fbfaf8; stroke-width: 0.5; stroke-linejoin: miter"/>
   </g>
   <g id="text_49">
    <text style="font-weight: 700; font-size: 9px; font-family: 'Helvetica Neue'; text-anchor: middle; fill: #ffffff" x="414.358706" y="941.322045" transform="rotate(-0 414.358706 941.322045)">66%</text>
   </g>
   <g id="patch_32">
    <path d="M 216.85 853.312789 
L 216.85 853.312789 
L 216.85 896.793519 
L 216.85 896.793519 
z
" clip-path="url(#p883968e230)" style="fill: #1f6fd0; stroke: #fbfaf8; stroke-width: 0.5; stroke-linejoin: miter"/>
   </g>
   <g id="patch_33">
    <path d="M 611.867411 917.255039 
L 611.867411 917.255039 
L 611.867411 960.735769 
L 611.867411 960.735769 
z
" clip-path="url(#p883968e230)" style="fill: #1f6fd0; stroke: #fbfaf8; stroke-width: 0.5; stroke-linejoin: miter"/>
   </g>
   <g id="patch_34">
    <path d="M 216.85 981.197289 
L 652.565157 981.197289 
L 652.565157 1024.67802 
L 216.85 1024.67802 
z
" clip-path="url(#p883968e230)" style="fill: #1f6fd0; stroke: #fbfaf8; stroke-width: 0.5; stroke-linejoin: miter"/>
   </g>
   <g id="text_50">
    <text style="font-weight: 700; font-size: 9px; font-family: 'Helvetica Neue'; text-anchor: middle; fill: #ffffff" x="434.707578" y="1005.264295" transform="rotate(-0 434.707578 1005.264295)">73%</text>
   </g>
   <g id="patch_35">
    <path d="M 216.85 853.312789 
L 231.476735 853.312789 
L 231.476735 896.793519 
L 216.85 896.793519 
z
" clip-path="url(#p883968e230)" style="fill: #1f6fd0; stroke: #fbfaf8; stroke-width: 0.5; stroke-linejoin: miter"/>
   </g>
   <g id="patch_36">
    <path d="M 611.867411 917.255039 
L 642.107445 917.255039 
L 642.107445 960.735769 
L 611.867411 960.735769 
z
" clip-path="url(#p883968e230)" style="fill: #1f6fd0; stroke: #fbfaf8; stroke-width: 0.5; stroke-linejoin: miter"/>
   </g>
   <g id="patch_37">
    <path d="M 652.565157 981.197289 
L 684.622649 981.197289 
L 684.622649 1024.67802 
L 652.565157 1024.67802 
z
" clip-path="url(#p883968e230)" style="fill: #1f6fd0; stroke: #fbfaf8; stroke-width: 0.5; stroke-linejoin: miter"/>
   </g>
   <g id="text_51">
    <text style="font-weight: 700; font-size: 9px; font-family: 'Helvetica Neue'; text-anchor: middle; fill: #ffffff" x="626.987428" y="941.322045" transform="rotate(-0 626.987428 941.322045)">5%</text>
   </g>
   <g id="text_52">
    <text style="font-weight: 700; font-size: 9px; font-family: 'Helvetica Neue'; text-anchor: middle; fill: #ffffff" x="668.593903" y="1005.264295" transform="rotate(-0 668.593903 1005.264295)">5%</text>
   </g>
   <g id="patch_38">
    <path d="M 231.476735 853.312789 
L 235.480077 853.312789 
L 235.480077 896.793519 
L 231.476735 896.793519 
z
" clip-path="url(#p883968e230)" style="fill: #1f6fd0; stroke: #fbfaf8; stroke-width: 0.5; stroke-linejoin: miter"/>
   </g>
   <g id="patch_39">
    <path d="M 642.107445 917.255039 
L 646.422136 917.255039 
L 646.422136 960.735769 
L 642.107445 960.735769 
z
" clip-path="url(#p883968e230)" style="fill: #1f6fd0; stroke: #fbfaf8; stroke-width: 0.5; stroke-linejoin: miter"/>
   </g>
   <g id="patch_40">
    <path d="M 684.622649 981.197289 
L 687.685152 981.197289 
L 687.685152 1024.67802 
L 684.622649 1024.67802 
z
" clip-path="url(#p883968e230)" style="fill: #1f6fd0; stroke: #fbfaf8; stroke-width: 0.5; stroke-linejoin: miter"/>
   </g>
   <g id="patch_41">
    <path d="M 235.480077 853.312789 
L 237.157455 853.312789 
L 237.157455 896.793519 
L 235.480077 896.793519 
z
" clip-path="url(#p883968e230)" style="fill: #1f6fd0; stroke: #fbfaf8; stroke-width: 0.5; stroke-linejoin: miter"/>
   </g>
   <g id="patch_42">
    <path d="M 646.422136 917.255039 
L 646.831288 917.255039 
L 646.831288 960.735769 
L 646.422136 960.735769 
z
" clip-path="url(#p883968e230)" style="fill: #1f6fd0; stroke: #fbfaf8; stroke-width: 0.5; stroke-linejoin: miter"/>
   </g>
   <g id="patch_43">
    <path d="M 687.685152 981.197289 
L 687.783942 981.197289 
L 687.783942 1024.67802 
L 687.685152 1024.67802 
z
" clip-path="url(#p883968e230)" style="fill: #1f6fd0; stroke: #fbfaf8; stroke-width: 0.5; stroke-linejoin: miter"/>
   </g>
   <g id="patch_44">
    <path d="M 237.157455 853.312789 
L 313.958997 853.312789 
L 313.958997 896.793519 
L 237.157455 896.793519 
z
" clip-path="url(#p883968e230)" style="fill: #e2673a; stroke: #fbfaf8; stroke-width: 0.5; stroke-linejoin: miter"/>
   </g>
   <g id="patch_45">
    <path d="M 646.831288 917.255039 
L 727.211007 917.255039 
L 727.211007 960.735769 
L 646.831288 960.735769 
z
" clip-path="url(#p883968e230)" style="fill: #e2673a; stroke: #fbfaf8; stroke-width: 0.5; stroke-linejoin: miter"/>
   </g>
   <g id="patch_46">
    <path d="M 687.783942 981.197289 
L 752.392878 981.197289 
L 752.392878 1024.67802 
L 687.783942 1024.67802 
z
" clip-path="url(#p883968e230)" style="fill: #e2673a; stroke: #fbfaf8; stroke-width: 0.5; stroke-linejoin: miter"/>
   </g>
   <g id="text_53">
    <text style="font-weight: 700; font-size: 9px; font-family: 'Helvetica Neue'; text-anchor: middle; fill: #ffffff" x="275.558226" y="877.379795" transform="rotate(-0 275.558226 877.379795)">13%</text>
   </g>
   <g id="text_54">
    <text style="font-weight: 700; font-size: 9px; font-family: 'Helvetica Neue'; text-anchor: middle; fill: #ffffff" x="687.021148" y="941.322045" transform="rotate(-0 687.021148 941.322045)">13%</text>
   </g>
   <g id="text_55">
    <text style="font-weight: 700; font-size: 9px; font-family: 'Helvetica Neue'; text-anchor: middle; fill: #ffffff" x="720.08841" y="1005.264295" transform="rotate(-0 720.08841 1005.264295)">11%</text>
   </g>
   <g id="patch_47">
    <path d="M 313.958997 853.312789 
L 322.368252 853.312789 
L 322.368252 896.793519 
L 313.958997 896.793519 
z
" clip-path="url(#p883968e230)" style="fill: #e2673a; stroke: #fbfaf8; stroke-width: 0.5; stroke-linejoin: miter"/>
   </g>
   <g id="patch_48">
    <path d="M 727.211007 917.255039 
L 755.888825 917.255039 
L 755.888825 960.735769 
L 727.211007 960.735769 
z
" clip-path="url(#p883968e230)" style="fill: #e2673a; stroke: #fbfaf8; stroke-width: 0.5; stroke-linejoin: miter"/>
   </g>
   <g id="patch_49">
    <path d="M 752.392878 981.197289 
L 771.805196 981.197289 
L 771.805196 1024.67802 
L 752.392878 1024.67802 
z
" clip-path="url(#p883968e230)" style="fill: #e2673a; stroke: #fbfaf8; stroke-width: 0.5; stroke-linejoin: miter"/>
   </g>
   <g id="patch_50">
    <path d="M 322.368252 853.312789 
L 325.924293 853.312789 
L 325.924293 896.793519 
L 322.368252 896.793519 
z
" clip-path="url(#p883968e230)" style="fill: #e2673a; stroke: #fbfaf8; stroke-width: 0.5; stroke-linejoin: miter"/>
   </g>
   <g id="patch_51">
    <path d="M 755.888825 917.255039 
L 762.435253 917.255039 
L 762.435253 960.735769 
L 755.888825 960.735769 
z
" clip-path="url(#p883968e230)" style="fill: #e2673a; stroke: #fbfaf8; stroke-width: 0.5; stroke-linejoin: miter"/>
   </g>
   <g id="patch_52">
    <path d="M 771.805196 981.197289 
L 780.004801 981.197289 
L 780.004801 1024.67802 
L 771.805196 1024.67802 
z
" clip-path="url(#p883968e230)" style="fill: #e2673a; stroke: #fbfaf8; stroke-width: 0.5; stroke-linejoin: miter"/>
   </g>
   <g id="patch_53">
    <path d="M 325.924293 853.312789 
L 327.132005 853.312789 
L 327.132005 896.793519 
L 325.924293 896.793519 
z
" clip-path="url(#p883968e230)" style="fill: #e2673a; stroke: #fbfaf8; stroke-width: 0.5; stroke-linejoin: miter"/>
   </g>
   <g id="patch_54">
    <path d="M 762.435253 917.255039 
L 765.485293 917.255039 
L 765.485293 960.735769 
L 762.435253 960.735769 
z
" clip-path="url(#p883968e230)" style="fill: #e2673a; stroke: #fbfaf8; stroke-width: 0.5; stroke-linejoin: miter"/>
   </g>
   <g id="patch_55">
    <path d="M 780.004801 981.197289 
L 782.869724 981.197289 
L 782.869724 1024.67802 
L 780.004801 1024.67802 
z
" clip-path="url(#p883968e230)" style="fill: #e2673a; stroke: #fbfaf8; stroke-width: 0.5; stroke-linejoin: miter"/>
   </g>
   <g id="patch_56">
    <path d="M 327.132005 853.312789 
L 327.870051 853.312789 
L 327.870051 896.793519 
L 327.132005 896.793519 
z
" clip-path="url(#p883968e230)" style="fill: #e2673a; stroke: #fbfaf8; stroke-width: 0.5; stroke-linejoin: miter"/>
   </g>
   <g id="patch_57">
    <path d="M 765.485293 917.255039 
L 766.898727 917.255039 
L 766.898727 960.735769 
L 765.485293 960.735769 
z
" clip-path="url(#p883968e230)" style="fill: #e2673a; stroke: #fbfaf8; stroke-width: 0.5; stroke-linejoin: miter"/>
   </g>
   <g id="patch_58">
    <path d="M 782.869724 981.197289 
L 783.413071 981.197289 
L 783.413071 1024.67802 
L 782.869724 1024.67802 
z
" clip-path="url(#p883968e230)" style="fill: #e2673a; stroke: #fbfaf8; stroke-width: 0.5; stroke-linejoin: miter"/>
   </g>
   <g id="patch_59">
    <path d="M 327.870051 853.312789 
L 783.065681 853.312789 
L 783.065681 896.793519 
L 327.870051 896.793519 
z
" clip-path="url(#p883968e230)" style="fill: url(#hefa908c9c3); stroke: #fbfaf8; stroke-width: 0.5; stroke-linejoin: miter"/>
   </g>
   <g id="patch_60">
    <path d="M 766.898727 917.255039 
L 766.898727 917.255039 
L 766.898727 960.735769 
L 766.898727 960.735769 
z
" clip-path="url(#p883968e230)" style="fill: url(#hefa908c9c3); stroke: #fbfaf8; stroke-width: 0.5; stroke-linejoin: miter"/>
   </g>
   <g id="patch_61">
    <path d="M 783.413071 981.197289 
L 783.413071 981.197289 
L 783.413071 1024.67802 
L 783.413071 1024.67802 
z
" clip-path="url(#p883968e230)" style="fill: url(#hefa908c9c3); stroke: #fbfaf8; stroke-width: 0.5; stroke-linejoin: miter"/>
   </g>
   <g id="text_56">
    <text style="font-weight: 700; font-size: 9px; font-family: 'Helvetica Neue'; text-anchor: middle; fill: #14110f" x="555.467866" y="877.379795" transform="rotate(-0 555.467866 877.379795)">76%</text>
   </g>
   <g id="patch_62">
    <path d="M 783.065681 853.312789 
L 812.006041 853.312789 
L 812.006041 896.793519 
L 783.065681 896.793519 
z
" clip-path="url(#p883968e230)" style="fill: #c7c0b6; stroke: #fbfaf8; stroke-width: 0.5; stroke-linejoin: miter"/>
   </g>
   <g id="patch_63">
    <path d="M 766.898727 917.255039 
L 805.02423 917.255039 
L 805.02423 960.735769 
L 766.898727 960.735769 
z
" clip-path="url(#p883968e230)" style="fill: #c7c0b6; stroke: #fbfaf8; stroke-width: 0.5; stroke-linejoin: miter"/>
   </g>
   <g id="patch_64">
    <path d="M 783.413071 981.197289 
L 808.604628 981.197289 
L 808.604628 1024.67802 
L 783.413071 1024.67802 
z
" clip-path="url(#p883968e230)" style="fill: #c7c0b6; stroke: #fbfaf8; stroke-width: 0.5; stroke-linejoin: miter"/>
   </g>
   <g id="text_57">
    <text style="font-weight: 700; font-size: 9px; font-family: 'Helvetica Neue'; text-anchor: middle; fill: #14110f" x="785.961478" y="941.322045" transform="rotate(-0 785.961478 941.322045)">6%</text>
   </g>
   <g id="patch_65">
    <path d="M 812.006041 853.312789 
L 815.942288 853.312789 
L 815.942288 896.793519 
L 812.006041 896.793519 
z
" clip-path="url(#p883968e230)" style="fill: #c7c0b6; stroke: #fbfaf8; stroke-width: 0.5; stroke-linejoin: miter"/>
   </g>
   <g id="patch_66">
    <path d="M 805.02423 917.255039 
L 809.190139 917.255039 
L 809.190139 960.735769 
L 805.02423 960.735769 
z
" clip-path="url(#p883968e230)" style="fill: #c7c0b6; stroke: #fbfaf8; stroke-width: 0.5; stroke-linejoin: miter"/>
   </g>
   <g id="patch_67">
    <path d="M 808.604628 981.197289 
L 813.791126 981.197289 
L 813.791126 1024.67802 
L 808.604628 1024.67802 
z
" clip-path="url(#p883968e230)" style="fill: #c7c0b6; stroke: #fbfaf8; stroke-width: 0.5; stroke-linejoin: miter"/>
   </g>
   <g id="patch_68">
    <path d="M 815.942288 853.312789 
L 817.15 853.312789 
L 817.15 896.793519 
L 815.942288 896.793519 
z
" clip-path="url(#p883968e230)" style="fill: #c7c0b6; stroke: #fbfaf8; stroke-width: 0.5; stroke-linejoin: miter"/>
   </g>
   <g id="patch_69">
    <path d="M 809.190139 917.255039 
L 817.15 917.255039 
L 817.15 960.735769 
L 809.190139 960.735769 
z
" clip-path="url(#p883968e230)" style="fill: #c7c0b6; stroke: #fbfaf8; stroke-width: 0.5; stroke-linejoin: miter"/>
   </g>
   <g id="patch_70">
    <path d="M 813.791126 981.197289 
L 817.15 981.197289 
L 817.15 1024.67802 
L 813.791126 1024.67802 
z
" clip-path="url(#p883968e230)" style="fill: #c7c0b6; stroke: #fbfaf8; stroke-width: 0.5; stroke-linejoin: miter"/>
   </g>
   <g id="text_58">
    <text style="font-style: italic; font-size: 8.5px; font-family: 'Helvetica Neue'; text-anchor: end; fill: #938b82" x="817.15" y="1062.003757" transform="rotate(-0 817.15 1062.003757)">As programs advance the ambiguous 'stall' bucket shrinks and biology gets more direct: 79% of Ph3 fails are Ph3-completed-no-approval.</text>
   </g>
   <g id="text_59">
    <text style="font-weight: 700; font-size: 11.5px; font-family: 'Helvetica Neue'; text-anchor: start; fill: #14110f" x="216.85" y="836.744527" transform="rotate(-0 216.85 836.744527)">C. Why they stop, by phase  |  reasons for programs that failed at each stage</text>
   </g>
  </g>
 </g>
 <defs>
  <clipPath id="p8c9abcc0bb">
   <rect x="216.85" y="24.238281" width="600.3" height="141.376316"/>
  </clipPath>
  <clipPath id="p03cae5e895">
   <rect x="216.85" y="300.969328" width="600.3" height="408.420467"/>
  </clipPath>
  <clipPath id="p883968e230">
   <rect x="216.85" y="844.744527" width="600.3" height="188.501754"/>
  </clipPath>
 </defs>
 <defs>
  <pattern id="he930d27bba" patternUnits="userSpaceOnUse" x="0" y="0" width="72" height="72">
   <rect x="0" y="0" width="73" height="73" fill="#1f6fd0"/>
   <path d="M -36 36 
L 36 -36 
M -32 40 
L 40 -32 
M -28 44 
L 44 -28 
M -24 48 
L 48 -24 
M -20 52 
L 52 -20 
M -16 56 
L 56 -16 
M -12 60 
L 60 -12 
M -8 64 
L 64 -8 
M -4 68 
L 68 -4 
M 0 72 
L 72 0 
M 4 76 
L 76 4 
M 8 80 
L 80 8 
M 12 84 
L 84 12 
M 16 88 
L 88 16 
M 20 92 
L 92 20 
M 24 96 
L 96 24 
M 28 100 
L 100 28 
M 32 104 
L 104 32 
M 36 108 
L 108 36 
" style="fill: #fbfaf8; stroke: #fbfaf8; stroke-width: 1.0; stroke-linecap: butt; stroke-linejoin: miter"/>
  </pattern>
  <pattern id="hefa908c9c3" patternUnits="userSpaceOnUse" x="0" y="0" width="72" height="72">
   <rect x="0" y="0" width="73" height="73" fill="#c7c0b6"/>
   <path d="M -36 36 
L 36 -36 
M -32 40 
L 40 -32 
M -28 44 
L 44 -28 
M -24 48 
L 48 -24 
M -20 52 
L 52 -20 
M -16 56 
L 56 -16 
M -12 60 
L 60 -12 
M -8 64 
L 64 -8 
M -4 68 
L 68 -4 
M 0 72 
L 72 0 
M 4 76 
L 76 4 
M 8 80 
L 80 8 
M 12 84 
L 84 12 
M 16 88 
L 88 16 
M 20 92 
L 92 20 
M 24 96 
L 96 24 
M 28 100 
L 100 28 
M 32 104 
L 104 32 
M 36 108 
L 108 36 
" style="fill: #fbfaf8; stroke: #fbfaf8; stroke-width: 1.0; stroke-linecap: butt; stroke-linejoin: miter"/>
  </pattern>
 </defs>
</svg>
