<?xml version="1.0" encoding="utf-8" standalone="no"?>
<!DOCTYPE svg PUBLIC "-//W3C//DTD SVG 1.1//EN"
  "http://www.w3.org/Graphics/SVG/1.1/DTD/svg11.dtd">
<svg xmlns:xlink="http://www.w3.org/1999/xlink" width="1092.122656pt" height="483.438469pt" viewBox="0 0 1092.122656 483.438469" xmlns="http://www.w3.org/2000/svg" version="1.1">
 <metadata>
  <rdf:RDF xmlns:dc="http://purl.org/dc/elements/1.1/" xmlns:cc="http://creativecommons.org/ns#" xmlns:rdf="http://www.w3.org/1999/02/22-rdf-syntax-ns#">
   <cc:Work>
    <dc:type rdf:resource="http://purl.org/dc/dcmitype/StillImage"/>
    <dc:date>2026-07-24T12:04:17.415097</dc:date>
    <dc:format>image/svg+xml</dc:format>
    <dc:creator>
     <cc:Agent>
      <dc:title>Matplotlib v3.10.8, https://matplotlib.org/</dc:title>
     </cc:Agent>
    </dc:creator>
   </cc:Work>
  </rdf:RDF>
 </metadata>
 <defs>
  <style type="text/css">*{stroke-linejoin: round; stroke-linecap: butt}</style>
 </defs>
 <g id="figure_1">
  <g id="patch_1">
   <path d="M 0 483.438469 
L 1092.122656 483.438469 
L 1092.122656 0 
L 0 0 
z
" style="fill: #fbfaf8"/>
  </g>
  <g id="axes_1">
   <g id="patch_2">
    <path d="M 136.322656 476.238469 
L 436.275225 476.238469 
L 436.275225 92.622469 
L 136.322656 92.622469 
z
" style="fill: #fbfaf8"/>
   </g>
   <g id="matplotlib.axis_1"/>
   <g id="matplotlib.axis_2">
    <g id="ytick_1">
     <g id="line2d_1"/>
     <g id="text_1">
      <text style="font-size: 10.5px; font-family: 'Helvetica Neue'; text-anchor: end; fill: #14110f" x="132.822656" y="461.842921" transform="rotate(-0 132.822656 461.842921)">PK / PD / formulation</text>
     </g>
    </g>
    <g id="ytick_2">
     <g id="line2d_2"/>
     <g id="text_2">
      <text style="font-size: 10.5px; font-family: 'Helvetica Neue'; text-anchor: end; fill: #14110f" x="132.822656" y="427.19879" transform="rotate(-0 132.822656 427.19879)">Manufacturing / supply</text>
     </g>
    </g>
    <g id="ytick_3">
     <g id="line2d_3"/>
     <g id="text_3">
      <text style="font-size: 10.5px; font-family: 'Helvetica Neue'; text-anchor: end; fill: #14110f" x="132.822656" y="392.466065" transform="rotate(-0 132.822656 392.466065)">Competitive landscape</text>
     </g>
    </g>
    <g id="ytick_4">
     <g id="line2d_4"/>
     <g id="text_4">
      <text style="font-size: 10.5px; font-family: 'Helvetica Neue'; text-anchor: end; fill: #14110f" x="132.822656" y="357.73334" transform="rotate(-0 132.822656 357.73334)">Safety / toxicity</text>
     </g>
    </g>
    <g id="ytick_5">
     <g id="line2d_5"/>
     <g id="text_5">
      <text style="font-size: 10.5px; font-family: 'Helvetica Neue'; text-anchor: end; fill: #14110f" x="132.822656" y="323.000616" transform="rotate(-0 132.822656 323.000616)">COVID-19 disruption</text>
     </g>
    </g>
    <g id="ytick_6">
     <g id="line2d_6"/>
     <g id="text_6">
      <text style="font-size: 10.5px; font-family: 'Helvetica Neue'; text-anchor: end; fill: #14110f" x="132.822656" y="288.267891" transform="rotate(-0 132.822656 288.267891)">Regulatory / administrative</text>
     </g>
    </g>
    <g id="ytick_7">
     <g id="line2d_7"/>
     <g id="text_7">
      <text style="font-size: 10.5px; font-family: 'Helvetica Neue'; text-anchor: end; fill: #14110f" x="132.822656" y="253.535166" transform="rotate(-0 132.822656 253.535166)">Planned (per protocol)</text>
     </g>
    </g>
    <g id="ytick_8">
     <g id="line2d_8"/>
     <g id="text_8">
      <text style="font-size: 10.5px; font-family: 'Helvetica Neue'; text-anchor: end; fill: #14110f" x="132.822656" y="218.802441" transform="rotate(-0 132.822656 218.802441)">Enrollment / operational</text>
     </g>
    </g>
    <g id="ytick_9">
     <g id="line2d_9"/>
     <g id="text_9">
      <text style="font-size: 10.5px; font-family: 'Helvetica Neue'; text-anchor: end; fill: #14110f" x="132.822656" y="183.981122" transform="rotate(-0 132.822656 183.981122)">Unclear / undisclosed</text>
     </g>
    </g>
    <g id="ytick_10">
     <g id="line2d_10"/>
     <g id="text_10">
      <text style="font-size: 10.5px; font-family: 'Helvetica Neue'; text-anchor: end; fill: #14110f" x="132.822656" y="149.290233" transform="rotate(-0 132.822656 149.290233)">Efficacy</text>
     </g>
    </g>
    <g id="ytick_11">
     <g id="line2d_11"/>
     <g id="text_11">
      <text style="font-size: 10.5px; font-family: 'Helvetica Neue'; text-anchor: end; fill: #14110f" x="132.822656" y="114.604266" transform="rotate(-0 132.822656 114.604266)">Commercial / strategic</text>
     </g>
    </g>
   </g>
   <g id="patch_3">
    <path d="M 136.322656 468.861238 
L 140.521992 468.861238 
L 140.521992 447.326949 
L 136.322656 447.326949 
z
" clip-path="url(#p310f42d6df)" style="fill: #1f6fd0; stroke: #fbfaf8; stroke-width: 0.5; stroke-linejoin: miter"/>
   </g>
   <g id="patch_4">
    <path d="M 136.322656 434.128513 
L 141.121897 434.128513 
L 141.121897 412.594224 
L 136.322656 412.594224 
z
" clip-path="url(#p310f42d6df)" style="fill: #e2673a; stroke: #fbfaf8; stroke-width: 0.5; stroke-linejoin: miter"/>
   </g>
   <g id="patch_5">
    <path d="M 136.322656 399.395788 
L 145.921138 399.395788 
L 145.921138 377.861499 
L 136.322656 377.861499 
z
" clip-path="url(#p310f42d6df)" style="fill: #e2673a; stroke: #fbfaf8; stroke-width: 0.5; stroke-linejoin: miter"/>
   </g>
   <g id="patch_6">
    <path d="M 136.322656 364.663063 
L 153.719905 364.663063 
L 153.719905 343.128774 
L 136.322656 343.128774 
z
" clip-path="url(#p310f42d6df)" style="fill: #1f6fd0; stroke: #fbfaf8; stroke-width: 0.5; stroke-linejoin: miter"/>
   </g>
   <g id="patch_7">
    <path d="M 136.322656 329.930338 
L 154.919716 329.930338 
L 154.919716 308.396049 
L 136.322656 308.396049 
z
" clip-path="url(#p310f42d6df)" style="fill: #c7c0b6; stroke: #fbfaf8; stroke-width: 0.5; stroke-linejoin: miter"/>
   </g>
   <g id="patch_8">
    <path d="M 136.322656 295.197613 
L 155.519621 295.197613 
L 155.519621 273.663324 
L 136.322656 273.663324 
z
" clip-path="url(#p310f42d6df)" style="fill: #e2673a; stroke: #fbfaf8; stroke-width: 0.5; stroke-linejoin: miter"/>
   </g>
   <g id="patch_9">
    <path d="M 136.322656 260.464889 
L 155.519621 260.464889 
L 155.519621 238.930599 
L 136.322656 238.930599 
z
" clip-path="url(#p310f42d6df)" style="fill: #c7c0b6; stroke: #fbfaf8; stroke-width: 0.5; stroke-linejoin: miter"/>
   </g>
   <g id="patch_10">
    <path d="M 136.322656 225.732164 
L 204.711842 225.732164 
L 204.711842 204.197874 
L 136.322656 204.197874 
z
" clip-path="url(#p310f42d6df)" style="fill: #e2673a; stroke: #fbfaf8; stroke-width: 0.5; stroke-linejoin: miter"/>
   </g>
   <g id="patch_11">
    <path d="M 136.322656 190.999439 
L 222.708996 190.999439 
L 222.708996 169.465149 
L 136.322656 169.465149 
z
" clip-path="url(#p310f42d6df)" style="fill: #c7c0b6; stroke: #fbfaf8; stroke-width: 0.5; stroke-linejoin: miter"/>
   </g>
   <g id="patch_12">
    <path d="M 136.322656 156.266714 
L 222.708996 156.266714 
L 222.708996 134.732424 
L 136.322656 134.732424 
z
" clip-path="url(#p310f42d6df)" style="fill: #1f6fd0; stroke: #fbfaf8; stroke-width: 0.5; stroke-linejoin: miter"/>
   </g>
   <g id="patch_13">
    <path d="M 136.322656 121.533989 
L 401.480727 121.533989 
L 401.480727 99.9997 
L 136.322656 99.9997 
z
" clip-path="url(#p310f42d6df)" style="fill: #e2673a; stroke: #fbfaf8; stroke-width: 0.5; stroke-linejoin: miter"/>
   </g>
   <g id="text_12">
    <text style="font-weight: 700; font-size: 9.5px; font-family: 'Helvetica Neue'; text-anchor: start; fill: #14110f" x="145.021281" y="460.549992" transform="rotate(-0 145.021281 460.549992)">0.7%</text>
   </g>
   <g id="text_13">
    <text style="font-weight: 700; font-size: 9.5px; font-family: 'Helvetica Neue'; text-anchor: start; fill: #14110f" x="145.621186" y="425.817267" transform="rotate(-0 145.621186 425.817267)">0.8%</text>
   </g>
   <g id="text_14">
    <text style="font-weight: 700; font-size: 9.5px; font-family: 'Helvetica Neue'; text-anchor: start; fill: #14110f" x="150.420427" y="391.084542" transform="rotate(-0 150.420427 391.084542)">2%</text>
   </g>
   <g id="text_15">
    <text style="font-weight: 700; font-size: 9.5px; font-family: 'Helvetica Neue'; text-anchor: start; fill: #14110f" x="158.219194" y="356.351817" transform="rotate(-0 158.219194 356.351817)">3%</text>
   </g>
   <g id="text_16">
    <text style="font-weight: 700; font-size: 9.5px; font-family: 'Helvetica Neue'; text-anchor: start; fill: #14110f" x="159.419004" y="321.619092" transform="rotate(-0 159.419004 321.619092)">3%</text>
   </g>
   <g id="text_17">
    <text style="font-weight: 700; font-size: 9.5px; font-family: 'Helvetica Neue'; text-anchor: start; fill: #14110f" x="160.018909" y="286.886367" transform="rotate(-0 160.018909 286.886367)">3%</text>
   </g>
   <g id="text_18">
    <text style="font-weight: 700; font-size: 9.5px; font-family: 'Helvetica Neue'; text-anchor: start; fill: #14110f" x="160.018909" y="252.153642" transform="rotate(-0 160.018909 252.153642)">3%</text>
   </g>
   <g id="text_19">
    <text style="font-weight: 700; font-size: 9.5px; font-family: 'Helvetica Neue'; text-anchor: start; fill: #14110f" x="209.211131" y="217.420917" transform="rotate(-0 209.211131 217.420917)">11%</text>
   </g>
   <g id="text_20">
    <text style="font-weight: 700; font-size: 9.5px; font-family: 'Helvetica Neue'; text-anchor: start; fill: #14110f" x="227.208285" y="182.688192" transform="rotate(-0 227.208285 182.688192)">14%</text>
   </g>
   <g id="text_21">
    <text style="font-weight: 700; font-size: 9.5px; font-family: 'Helvetica Neue'; text-anchor: start; fill: #14110f" x="227.208285" y="147.955468" transform="rotate(-0 227.208285 147.955468)">14%</text>
   </g>
   <g id="text_22">
    <text style="font-weight: 700; font-size: 9.5px; font-family: 'Helvetica Neue'; text-anchor: start; fill: #14110f" x="405.980016" y="113.222743" transform="rotate(-0 405.980016 113.222743)">44%</text>
   </g>
   <g id="text_23">
    <text style="font-size: 11px; font-family: 'Helvetica Neue'; fill: #5b544e" transform="translate(136.322656 66.9195)">Terminations only  (n=5,510 trials)</text>
    <text style="font-size: 11px; font-family: 'Helvetica Neue'; fill: #5b544e" transform="translate(136.322656 78.622469)">what sponsors state when they stop a trial early</text>
   </g>
   <g id="legend_1">
    <g id="patch_14">
     <path d="M 254.146866 440.346281 
L 263.646866 440.346281 
L 263.646866 431.843781 
L 254.146866 431.843781 
z
" style="fill: #1f6fd0"/>
    </g>
    <g id="text_24">
     <text style="font-size: 9.5px; font-family: 'Helvetica Neue'; text-anchor: start; fill: #5b544e" x="271.246866" y="439.348781" transform="rotate(-0 271.246866 439.348781)">Biology (efficacy / safety / PK)  ·  18%</text>
    </g>
    <g id="patch_15">
     <path d="M 254.146866 455.537375 
L 263.646866 455.537375 
L 263.646866 447.034875 
L 254.146866 447.034875 
z
" style="fill: #e2673a"/>
    </g>
    <g id="text_25">
     <text style="font-size: 9.5px; font-family: 'Helvetica Neue'; text-anchor: start; fill: #5b544e" x="271.246866" y="454.539875" transform="rotate(-0 271.246866 454.539875)">Business &amp; operational  ·  61%</text>
    </g>
    <g id="patch_16">
     <path d="M 254.146866 470.614172 
L 263.646866 470.614172 
L 263.646866 462.111672 
L 254.146866 462.111672 
z
" style="fill: #c7c0b6"/>
    </g>
    <g id="text_26">
     <text style="font-size: 9.5px; font-family: 'Helvetica Neue'; text-anchor: start; fill: #5b544e" x="271.246866" y="469.616672" transform="rotate(-0 271.246866 469.616672)">Other / undisclosed  ·  21%</text>
    </g>
   </g>
  </g>
  <g id="axes_2">
   <g id="patch_17">
    <path d="M 694.984316 476.238469 
L 1084.922656 476.238469 
L 1084.922656 92.622469 
L 694.984316 92.622469 
z
" style="fill: #fbfaf8"/>
   </g>
   <g id="matplotlib.axis_3"/>
   <g id="matplotlib.axis_4">
    <g id="ytick_12">
     <g id="line2d_12"/>
     <g id="text_27">
      <text style="font-size: 10.5px; font-family: 'Helvetica Neue'; text-anchor: end; fill: #14110f" x="691.484316" y="464.214539" transform="rotate(-0 691.484316 464.214539)">PK / PD / formulation</text>
     </g>
    </g>
    <g id="ytick_13">
     <g id="line2d_13"/>
     <g id="text_28">
      <text style="font-size: 10.5px; font-family: 'Helvetica Neue'; text-anchor: end; fill: #14110f" x="691.484316" y="437.220788" transform="rotate(-0 691.484316 437.220788)">Manufacturing / supply</text>
     </g>
    </g>
    <g id="ytick_14">
     <g id="line2d_14"/>
     <g id="text_29">
      <text style="font-size: 10.5px; font-family: 'Helvetica Neue'; text-anchor: end; fill: #14110f" x="691.484316" y="410.138443" transform="rotate(-0 691.484316 410.138443)">Competitive landscape</text>
     </g>
    </g>
    <g id="ytick_15">
     <g id="line2d_15"/>
     <g id="text_30">
      <text style="font-size: 10.5px; font-family: 'Helvetica Neue'; text-anchor: end; fill: #14110f" x="691.484316" y="382.967504" transform="rotate(-0 691.484316 382.967504)">Unknown</text>
     </g>
    </g>
    <g id="ytick_16">
     <g id="line2d_16"/>
     <g id="text_31">
      <text style="font-size: 10.5px; font-family: 'Helvetica Neue'; text-anchor: end; fill: #14110f" x="691.484316" y="355.973753" transform="rotate(-0 691.484316 355.973753)">Safety / toxicity</text>
     </g>
    </g>
    <g id="ytick_17">
     <g id="line2d_17"/>
     <g id="text_32">
      <text style="font-size: 10.5px; font-family: 'Helvetica Neue'; text-anchor: end; fill: #14110f" x="691.484316" y="328.891408" transform="rotate(-0 691.484316 328.891408)">Planned (per protocol)</text>
     </g>
    </g>
    <g id="ytick_18">
     <g id="line2d_18"/>
     <g id="text_33">
      <text style="font-size: 10.5px; font-family: 'Helvetica Neue'; text-anchor: end; fill: #14110f" x="691.484316" y="301.809063" transform="rotate(-0 691.484316 301.809063)">COVID-19 disruption</text>
     </g>
    </g>
    <g id="ytick_19">
     <g id="line2d_19"/>
     <g id="text_34">
      <text style="font-size: 10.5px; font-family: 'Helvetica Neue'; text-anchor: end; fill: #14110f" x="691.484316" y="274.726718" transform="rotate(-0 691.484316 274.726718)">Regulatory / administrative</text>
     </g>
    </g>
    <g id="ytick_20">
     <g id="line2d_20"/>
     <g id="text_35">
      <text style="font-size: 10.5px; font-family: 'Helvetica Neue'; text-anchor: end; fill: #14110f" x="691.484316" y="247.644373" transform="rotate(-0 691.484316 247.644373)">Enrollment / operational</text>
     </g>
    </g>
    <g id="ytick_21">
     <g id="line2d_21"/>
     <g id="text_36">
      <text style="font-size: 10.5px; font-family: 'Helvetica Neue'; text-anchor: end; fill: #14110f" x="691.484316" y="220.562028" transform="rotate(-0 691.484316 220.562028)">Efficacy (explicit termination)</text>
     </g>
    </g>
    <g id="ytick_22">
     <g id="line2d_22"/>
     <g id="text_37">
      <text style="font-size: 10.5px; font-family: 'Helvetica Neue'; text-anchor: end; fill: #14110f" x="691.484316" y="193.391089" transform="rotate(-0 691.484316 193.391089)">Unclassified termination</text>
     </g>
    </g>
    <g id="ytick_23">
     <g id="line2d_23"/>
     <g id="text_38">
      <text style="font-size: 10.5px; font-family: 'Helvetica Neue'; text-anchor: end; fill: #14110f" x="691.484316" y="166.397338" transform="rotate(-0 691.484316 166.397338)">Commercial / strategic</text>
     </g>
    </g>
    <g id="ytick_24">
     <g id="line2d_24"/>
     <g id="text_39">
      <text style="font-size: 10.5px; font-family: 'Helvetica Neue'; text-anchor: end; fill: #14110f" x="691.484316" y="139.314993" transform="rotate(-0 691.484316 139.314993)">Silent efficacy fail (Ph3 complete, no approval)</text>
     </g>
    </g>
    <g id="ytick_25">
     <g id="line2d_25"/>
     <g id="text_40">
      <text style="font-size: 10.5px; font-family: 'Helvetica Neue'; text-anchor: end; fill: #14110f" x="691.484316" y="112.232648" transform="rotate(-0 691.484316 112.232648)">Ph2 stall (Ph2 complete, program halted)</text>
     </g>
    </g>
   </g>
   <g id="patch_18">
    <path d="M 694.984316 468.861238 
L 695.309265 468.861238 
L 695.309265 452.070184 
L 694.984316 452.070184 
z
" clip-path="url(#pa01053c464)" style="fill: #1f6fd0; stroke: #fbfaf8; stroke-width: 0.5; stroke-linejoin: miter"/>
   </g>
   <g id="patch_19">
    <path d="M 694.984316 441.778893 
L 696.121636 441.778893 
L 696.121636 424.987839 
L 694.984316 424.987839 
z
" clip-path="url(#pa01053c464)" style="fill: #e2673a; stroke: #fbfaf8; stroke-width: 0.5; stroke-linejoin: miter"/>
   </g>
   <g id="patch_20">
    <path d="M 694.984316 414.696548 
L 698.31504 414.696548 
L 698.31504 397.905494 
L 694.984316 397.905494 
z
" clip-path="url(#pa01053c464)" style="fill: #e2673a; stroke: #fbfaf8; stroke-width: 0.5; stroke-linejoin: miter"/>
   </g>
   <g id="patch_21">
    <path d="M 694.984316 387.614203 
L 698.964937 387.614203 
L 698.964937 370.823149 
L 694.984316 370.823149 
z
" clip-path="url(#pa01053c464)" style="fill: #c7c0b6; stroke: #fbfaf8; stroke-width: 0.5; stroke-linejoin: miter"/>
   </g>
   <g id="patch_22">
    <path d="M 694.984316 360.531858 
L 699.127411 360.531858 
L 699.127411 343.740804 
L 694.984316 343.740804 
z
" clip-path="url(#pa01053c464)" style="fill: #1f6fd0; stroke: #fbfaf8; stroke-width: 0.5; stroke-linejoin: miter"/>
   </g>
   <g id="patch_23">
    <path d="M 694.984316 333.449513 
L 701.077103 333.449513 
L 701.077103 316.658459 
L 694.984316 316.658459 
z
" clip-path="url(#pa01053c464)" style="fill: #c7c0b6; stroke: #fbfaf8; stroke-width: 0.5; stroke-linejoin: miter"/>
   </g>
   <g id="patch_24">
    <path d="M 694.984316 306.367168 
L 701.402052 306.367168 
L 701.402052 289.576114 
L 694.984316 289.576114 
z
" clip-path="url(#pa01053c464)" style="fill: #c7c0b6; stroke: #fbfaf8; stroke-width: 0.5; stroke-linejoin: miter"/>
   </g>
   <g id="patch_25">
    <path d="M 694.984316 279.284823 
L 702.86432 279.284823 
L 702.86432 262.493769 
L 694.984316 262.493769 
z
" clip-path="url(#pa01053c464)" style="fill: #e2673a; stroke: #fbfaf8; stroke-width: 0.5; stroke-linejoin: miter"/>
   </g>
   <g id="patch_26">
    <path d="M 694.984316 252.202478 
L 721.792577 252.202478 
L 721.792577 235.411424 
L 694.984316 235.411424 
z
" clip-path="url(#pa01053c464)" style="fill: #e2673a; stroke: #fbfaf8; stroke-width: 0.5; stroke-linejoin: miter"/>
   </g>
   <g id="patch_27">
    <path d="M 694.984316 225.120133 
L 729.185158 225.120133 
L 729.185158 208.329079 
L 694.984316 208.329079 
z
" clip-path="url(#pa01053c464)" style="fill: #1f6fd0; stroke: #fbfaf8; stroke-width: 0.5; stroke-linejoin: miter"/>
   </g>
   <g id="patch_28">
    <path d="M 694.984316 198.037788 
L 731.70351 198.037788 
L 731.70351 181.246734 
L 694.984316 181.246734 
z
" clip-path="url(#pa01053c464)" style="fill: #c7c0b6; stroke: #fbfaf8; stroke-width: 0.5; stroke-linejoin: miter"/>
   </g>
   <g id="patch_29">
    <path d="M 694.984316 170.955443 
L 775.896522 170.955443 
L 775.896522 154.164389 
L 694.984316 154.164389 
z
" clip-path="url(#pa01053c464)" style="fill: #e2673a; stroke: #fbfaf8; stroke-width: 0.5; stroke-linejoin: miter"/>
   </g>
   <g id="patch_30">
    <path d="M 694.984316 143.873098 
L 968.34734 143.873098 
L 968.34734 127.082044 
L 694.984316 127.082044 
z
" clip-path="url(#pa01053c464)" style="fill: #1f6fd0; stroke: #fbfaf8; stroke-width: 0.5; stroke-linejoin: miter"/>
   </g>
   <g id="patch_31">
    <path d="M 694.984316 116.790753 
L 1022.126336 116.790753 
L 1022.126336 99.9997 
L 694.984316 99.9997 
z
" clip-path="url(#pa01053c464)" style="fill: url(#h7b7b2d8af1); stroke: #fbfaf8; stroke-width: 0.5; stroke-linejoin: miter"/>
   </g>
   <g id="text_41">
    <text style="font-weight: 700; font-size: 9.5px; font-family: 'Helvetica Neue'; text-anchor: start; fill: #14110f" x="701.15834" y="462.921609" transform="rotate(-0 701.15834 462.921609)">0.0%</text>
   </g>
   <g id="text_42">
    <text style="font-weight: 700; font-size: 9.5px; font-family: 'Helvetica Neue'; text-anchor: start; fill: #14110f" x="701.970712" y="435.839265" transform="rotate(-0 701.970712 435.839265)">0.1%</text>
   </g>
   <g id="text_43">
    <text style="font-weight: 700; font-size: 9.5px; font-family: 'Helvetica Neue'; text-anchor: start; fill: #14110f" x="704.164115" y="408.75692" transform="rotate(-0 704.164115 408.75692)">0.4%</text>
   </g>
   <g id="text_44">
    <text style="font-weight: 700; font-size: 9.5px; font-family: 'Helvetica Neue'; text-anchor: start; fill: #14110f" x="704.814012" y="381.674575" transform="rotate(-0 704.814012 381.674575)">0.5%</text>
   </g>
   <g id="text_45">
    <text style="font-weight: 700; font-size: 9.5px; font-family: 'Helvetica Neue'; text-anchor: start; fill: #14110f" x="704.976486" y="354.59223" transform="rotate(-0 704.976486 354.59223)">0.5%</text>
   </g>
   <g id="text_46">
    <text style="font-weight: 700; font-size: 9.5px; font-family: 'Helvetica Neue'; text-anchor: start; fill: #14110f" x="706.926178" y="327.509885" transform="rotate(-0 706.926178 327.509885)">0.8%</text>
   </g>
   <g id="text_47">
    <text style="font-weight: 700; font-size: 9.5px; font-family: 'Helvetica Neue'; text-anchor: start; fill: #14110f" x="707.251127" y="300.42754" transform="rotate(-0 707.251127 300.42754)">0.8%</text>
   </g>
   <g id="text_48">
    <text style="font-weight: 700; font-size: 9.5px; font-family: 'Helvetica Neue'; text-anchor: start; fill: #14110f" x="708.713395" y="273.345195" transform="rotate(-0 708.713395 273.345195)">1.0%</text>
   </g>
   <g id="text_49">
    <text style="font-weight: 700; font-size: 9.5px; font-family: 'Helvetica Neue'; text-anchor: start; fill: #14110f" x="727.641652" y="246.26285" transform="rotate(-0 727.641652 246.26285)">3%</text>
   </g>
   <g id="text_50">
    <text style="font-weight: 700; font-size: 9.5px; font-family: 'Helvetica Neue'; text-anchor: start; fill: #14110f" x="735.034233" y="219.180505" transform="rotate(-0 735.034233 219.180505)">4%</text>
   </g>
   <g id="text_51">
    <text style="font-weight: 700; font-size: 9.5px; font-family: 'Helvetica Neue'; text-anchor: start; fill: #14110f" x="737.552585" y="192.09816" transform="rotate(-0 737.552585 192.09816)">5%</text>
   </g>
   <g id="text_52">
    <text style="font-weight: 700; font-size: 9.5px; font-family: 'Helvetica Neue'; text-anchor: start; fill: #14110f" x="781.745597" y="165.015815" transform="rotate(-0 781.745597 165.015815)">10%</text>
   </g>
   <g id="text_53">
    <text style="font-weight: 700; font-size: 9.5px; font-family: 'Helvetica Neue'; text-anchor: start; fill: #14110f" x="974.196415" y="137.93347" transform="rotate(-0 974.196415 137.93347)">34%</text>
   </g>
   <g id="text_54">
    <text style="font-weight: 700; font-size: 9.5px; font-family: 'Helvetica Neue'; text-anchor: start; fill: #14110f" x="1027.975411" y="110.851125" transform="rotate(-0 1027.975411 110.851125)">40%</text>
   </g>
   <g id="text_55">
    <text style="font-size: 11px; font-family: 'Helvetica Neue'; fill: #5b544e" transform="translate(694.984316 66.897156)">All Ph2+ program failures  (n=35,800 programs)</text>
    <text style="font-size: 11px; font-family: 'Helvetica Neue'; fill: #5b544e" transform="translate(694.984316 78.622469)">what actually happens when a drug does not reach approval</text>
   </g>
   <g id="legend_2">
    <g id="patch_32">
     <path d="M 902.794297 440.346281 
L 912.294297 440.346281 
L 912.294297 431.843781 
L 902.794297 431.843781 
z
" style="fill: #1f6fd0"/>
    </g>
    <g id="text_56">
     <text style="font-size: 9.5px; font-family: 'Helvetica Neue'; text-anchor: start; fill: #5b544e" x="919.894297" y="439.348781" transform="rotate(-0 919.894297 439.348781)">Biology (efficacy / safety / PK)  ·  79%</text>
    </g>
    <g id="patch_33">
     <path d="M 902.794297 455.537375 
L 912.294297 455.537375 
L 912.294297 447.034875 
L 902.794297 447.034875 
z
" style="fill: #e2673a"/>
    </g>
    <g id="text_57">
     <text style="font-size: 9.5px; font-family: 'Helvetica Neue'; text-anchor: start; fill: #5b544e" x="919.894297" y="454.539875" transform="rotate(-0 919.894297 454.539875)">Business &amp; operational  ·  15%</text>
    </g>
    <g id="patch_34">
     <path d="M 902.794297 470.614172 
L 912.294297 470.614172 
L 912.294297 462.111672 
L 902.794297 462.111672 
z
" style="fill: #c7c0b6"/>
    </g>
    <g id="text_58">
     <text style="font-size: 9.5px; font-family: 'Helvetica Neue'; text-anchor: start; fill: #5b544e" x="919.894297" y="469.616672" transform="rotate(-0 919.894297 469.616672)">Other / undisclosed  ·  7%</text>
    </g>
   </g>
  </g>
  <g id="text_59">
   <text style="font-weight: 700; font-size: 15px; font-family: 'Helvetica Neue'; text-anchor: start; fill: #14110f" x="13.562656" y="18.030469" transform="rotate(-0 13.562656 18.030469)">Two ways to count failure — and why the answer changes</text>
  </g>
  <g id="text_60">
   <text style="font-size: 9.5px; font-family: 'Helvetica Neue'; text-anchor: start; fill: #5b544e" x="13.562656" y="40.408069" transform="rotate(-0 13.562656 40.408069)">Left: trial-level, terminations only. Right: program-level (drug x indication x sponsor), all Ph2+ programs that never reached approval.</text>
  </g>
 </g>
 <defs>
  <clipPath id="p310f42d6df">
   <rect x="136.322656" y="92.622469" width="299.952569" height="383.616"/>
  </clipPath>
  <clipPath id="pa01053c464">
   <rect x="694.984316" y="92.622469" width="389.93834" height="383.616"/>
  </clipPath>
 </defs>
 <defs>
  <pattern id="h7b7b2d8af1" patternUnits="userSpaceOnUse" x="0" y="0" width="72" height="72">
   <rect x="0" y="0" width="73" height="73" fill="#1f6fd0"/>
   <path d="M -36 36 
L 36 -36 
M -32 40 
L 40 -32 
M -28 44 
L 44 -28 
M -24 48 
L 48 -24 
M -20 52 
L 52 -20 
M -16 56 
L 56 -16 
M -12 60 
L 60 -12 
M -8 64 
L 64 -8 
M -4 68 
L 68 -4 
M 0 72 
L 72 0 
M 4 76 
L 76 4 
M 8 80 
L 80 8 
M 12 84 
L 84 12 
M 16 88 
L 88 16 
M 20 92 
L 92 20 
M 24 96 
L 96 24 
M 28 100 
L 100 28 
M 32 104 
L 104 32 
M 36 108 
L 108 36 
" style="fill: #fbfaf8; stroke: #fbfaf8; stroke-width: 1.0; stroke-linecap: butt; stroke-linejoin: miter"/>
  </pattern>
 </defs>
</svg>
