<?xml version="1.0" encoding="utf-8" standalone="no"?>
<!DOCTYPE svg PUBLIC "-//W3C//DTD SVG 1.1//EN"
  "http://www.w3.org/Graphics/SVG/1.1/DTD/svg11.dtd">
<svg xmlns:xlink="http://www.w3.org/1999/xlink" width="631.2215pt" height="486.85048pt" viewBox="0 0 631.2215 486.85048" xmlns="http://www.w3.org/2000/svg" version="1.1">
 <metadata>
  <rdf:RDF xmlns:dc="http://purl.org/dc/elements/1.1/" xmlns:cc="http://creativecommons.org/ns#" xmlns:rdf="http://www.w3.org/1999/02/22-rdf-syntax-ns#">
   <cc:Work>
    <dc:type rdf:resource="http://purl.org/dc/dcmitype/StillImage"/>
    <dc:date>2026-07-24T12:04:16.965679</dc:date>
    <dc:format>image/svg+xml</dc:format>
    <dc:creator>
     <cc:Agent>
      <dc:title>Matplotlib v3.10.8, https://matplotlib.org/</dc:title>
     </cc:Agent>
    </dc:creator>
   </cc:Work>
  </rdf:RDF>
 </metadata>
 <defs>
  <style type="text/css">*{stroke-linejoin: round; stroke-linecap: butt}</style>
 </defs>
 <g id="figure_1">
  <g id="patch_1">
   <path d="M 0 486.85048 
L 631.2215 486.85048 
L 631.2215 0 
L 0 0 
z
" style="fill: #fbfaf8"/>
  </g>
  <g id="axes_1">
   <g id="patch_2">
    <path d="M 227.1575 437.256 
L 624.0215 437.256 
L 624.0215 7.2 
L 227.1575 7.2 
z
" style="fill: #fbfaf8"/>
   </g>
   <g id="matplotlib.axis_1"/>
   <g id="matplotlib.axis_2">
    <g id="ytick_1">
     <g id="line2d_1"/>
     <g id="text_1">
      <text style="font-size: 10.5px; font-family: 'Helvetica Neue'; text-anchor: end; fill: #14110f" x="223.6575" y="423.322643" transform="rotate(-0 223.6575 423.322643)">PK / PD / formulation</text>
     </g>
    </g>
    <g id="ytick_2">
     <g id="line2d_2"/>
     <g id="text_2">
      <text style="font-size: 10.5px; font-family: 'Helvetica Neue'; text-anchor: end; fill: #14110f" x="223.6575" y="393.050342" transform="rotate(-0 223.6575 393.050342)">Manufacturing / supply</text>
     </g>
    </g>
    <g id="ytick_3">
     <g id="line2d_3"/>
     <g id="text_3">
      <text style="font-size: 10.5px; font-family: 'Helvetica Neue'; text-anchor: end; fill: #14110f" x="223.6575" y="362.689448" transform="rotate(-0 223.6575 362.689448)">Competitive landscape</text>
     </g>
    </g>
    <g id="ytick_4">
     <g id="line2d_4"/>
     <g id="text_4">
      <text style="font-size: 10.5px; font-family: 'Helvetica Neue'; text-anchor: end; fill: #14110f" x="223.6575" y="332.239959" transform="rotate(-0 223.6575 332.239959)">Unknown</text>
     </g>
    </g>
    <g id="ytick_5">
     <g id="line2d_5"/>
     <g id="text_5">
      <text style="font-size: 10.5px; font-family: 'Helvetica Neue'; text-anchor: end; fill: #14110f" x="223.6575" y="301.967658" transform="rotate(-0 223.6575 301.967658)">Safety / toxicity</text>
     </g>
    </g>
    <g id="ytick_6">
     <g id="line2d_6"/>
     <g id="text_6">
      <text style="font-size: 10.5px; font-family: 'Helvetica Neue'; text-anchor: end; fill: #14110f" x="223.6575" y="271.606764" transform="rotate(-0 223.6575 271.606764)">Planned (per protocol)</text>
     </g>
    </g>
    <g id="ytick_7">
     <g id="line2d_7"/>
     <g id="text_7">
      <text style="font-size: 10.5px; font-family: 'Helvetica Neue'; text-anchor: end; fill: #14110f" x="223.6575" y="241.245869" transform="rotate(-0 223.6575 241.245869)">COVID-19 disruption</text>
     </g>
    </g>
    <g id="ytick_8">
     <g id="line2d_8"/>
     <g id="text_8">
      <text style="font-size: 10.5px; font-family: 'Helvetica Neue'; text-anchor: end; fill: #14110f" x="223.6575" y="210.884975" transform="rotate(-0 223.6575 210.884975)">Regulatory / administrative</text>
     </g>
    </g>
    <g id="ytick_9">
     <g id="line2d_9"/>
     <g id="text_9">
      <text style="font-size: 10.5px; font-family: 'Helvetica Neue'; text-anchor: end; fill: #14110f" x="223.6575" y="180.52408" transform="rotate(-0 223.6575 180.52408)">Enrollment / operational</text>
     </g>
    </g>
    <g id="ytick_10">
     <g id="line2d_10"/>
     <g id="text_10">
      <text style="font-size: 10.5px; font-family: 'Helvetica Neue'; text-anchor: end; fill: #14110f" x="223.6575" y="150.163185" transform="rotate(-0 223.6575 150.163185)">Efficacy (explicit termination)</text>
     </g>
    </g>
    <g id="ytick_11">
     <g id="line2d_11"/>
     <g id="text_11">
      <text style="font-size: 10.5px; font-family: 'Helvetica Neue'; text-anchor: end; fill: #14110f" x="223.6575" y="119.713697" transform="rotate(-0 223.6575 119.713697)">Unclassified termination</text>
     </g>
    </g>
    <g id="ytick_12">
     <g id="line2d_12"/>
     <g id="text_12">
      <text style="font-size: 10.5px; font-family: 'Helvetica Neue'; text-anchor: end; fill: #14110f" x="223.6575" y="89.441396" transform="rotate(-0 223.6575 89.441396)">Commercial / strategic</text>
     </g>
    </g>
    <g id="ytick_13">
     <g id="line2d_13"/>
     <g id="text_13">
      <text style="font-size: 10.5px; font-family: 'Helvetica Neue'; text-anchor: end; fill: #14110f" x="223.6575" y="59.080502" transform="rotate(-0 223.6575 59.080502)">Silent efficacy fail (Ph3 complete, no approval)</text>
     </g>
    </g>
    <g id="ytick_14">
     <g id="line2d_14"/>
     <g id="text_14">
      <text style="font-size: 10.5px; font-family: 'Helvetica Neue'; text-anchor: end; fill: #14110f" x="223.6575" y="28.719607" transform="rotate(-0 223.6575 28.719607)">Ph2 stall (Ph2 complete, program halted)</text>
     </g>
    </g>
   </g>
   <g id="patch_3">
    <path d="M 227.1575 428.985692 
L 227.48822 428.985692 
L 227.48822 410.161938 
L 227.1575 410.161938 
z
" clip-path="url(#pdbd8332a39)" style="fill: #1f6fd0; stroke: #fbfaf8; stroke-width: 0.5; stroke-linejoin: miter"/>
   </g>
   <g id="patch_4">
    <path d="M 227.1575 398.624798 
L 228.31502 398.624798 
L 228.31502 379.801043 
L 227.1575 379.801043 
z
" clip-path="url(#pdbd8332a39)" style="fill: #e2673a; stroke: #fbfaf8; stroke-width: 0.5; stroke-linejoin: miter"/>
   </g>
   <g id="patch_5">
    <path d="M 227.1575 368.263903 
L 230.54738 368.263903 
L 230.54738 349.440148 
L 227.1575 349.440148 
z
" clip-path="url(#pdbd8332a39)" style="fill: #e2673a; stroke: #fbfaf8; stroke-width: 0.5; stroke-linejoin: miter"/>
   </g>
   <g id="patch_6">
    <path d="M 227.1575 337.903008 
L 231.20882 337.903008 
L 231.20882 319.079254 
L 227.1575 319.079254 
z
" clip-path="url(#pdbd8332a39)" style="fill: #c7c0b6; stroke: #fbfaf8; stroke-width: 0.5; stroke-linejoin: miter"/>
   </g>
   <g id="patch_7">
    <path d="M 227.1575 307.542114 
L 231.37418 307.542114 
L 231.37418 288.718359 
L 227.1575 288.718359 
z
" clip-path="url(#pdbd8332a39)" style="fill: #1f6fd0; stroke: #fbfaf8; stroke-width: 0.5; stroke-linejoin: miter"/>
   </g>
   <g id="patch_8">
    <path d="M 227.1575 277.181219 
L 233.3585 277.181219 
L 233.3585 258.357465 
L 227.1575 258.357465 
z
" clip-path="url(#pdbd8332a39)" style="fill: #c7c0b6; stroke: #fbfaf8; stroke-width: 0.5; stroke-linejoin: miter"/>
   </g>
   <g id="patch_9">
    <path d="M 227.1575 246.820325 
L 233.68922 246.820325 
L 233.68922 227.99657 
L 227.1575 227.99657 
z
" clip-path="url(#pdbd8332a39)" style="fill: #c7c0b6; stroke: #fbfaf8; stroke-width: 0.5; stroke-linejoin: miter"/>
   </g>
   <g id="patch_10">
    <path d="M 227.1575 216.45943 
L 235.17746 216.45943 
L 235.17746 197.635675 
L 227.1575 197.635675 
z
" clip-path="url(#pdbd8332a39)" style="fill: #e2673a; stroke: #fbfaf8; stroke-width: 0.5; stroke-linejoin: miter"/>
   </g>
   <g id="patch_11">
    <path d="M 227.1575 186.098535 
L 254.4419 186.098535 
L 254.4419 167.274781 
L 227.1575 167.274781 
z
" clip-path="url(#pdbd8332a39)" style="fill: #e2673a; stroke: #fbfaf8; stroke-width: 0.5; stroke-linejoin: miter"/>
   </g>
   <g id="patch_12">
    <path d="M 227.1575 155.737641 
L 261.96578 155.737641 
L 261.96578 136.913886 
L 227.1575 136.913886 
z
" clip-path="url(#pdbd8332a39)" style="fill: #1f6fd0; stroke: #fbfaf8; stroke-width: 0.5; stroke-linejoin: miter"/>
   </g>
   <g id="patch_13">
    <path d="M 227.1575 125.376746 
L 264.52886 125.376746 
L 264.52886 106.552992 
L 227.1575 106.552992 
z
" clip-path="url(#pdbd8332a39)" style="fill: #c7c0b6; stroke: #fbfaf8; stroke-width: 0.5; stroke-linejoin: miter"/>
   </g>
   <g id="patch_14">
    <path d="M 227.1575 95.015852 
L 309.50678 95.015852 
L 309.50678 76.192097 
L 227.1575 76.192097 
z
" clip-path="url(#pdbd8332a39)" style="fill: #e2673a; stroke: #fbfaf8; stroke-width: 0.5; stroke-linejoin: miter"/>
   </g>
   <g id="patch_15">
    <path d="M 227.1575 64.654957 
L 505.3757 64.654957 
L 505.3757 45.831202 
L 227.1575 45.831202 
z
" clip-path="url(#pdbd8332a39)" style="fill: #1f6fd0; stroke: #fbfaf8; stroke-width: 0.5; stroke-linejoin: miter"/>
   </g>
   <g id="patch_16">
    <path d="M 227.1575 34.294062 
L 560.10986 34.294062 
L 560.10986 15.470308 
L 227.1575 15.470308 
z
" clip-path="url(#pdbd8332a39)" style="fill: url(#h16751cbb3d); stroke: #fbfaf8; stroke-width: 0.5; stroke-linejoin: miter"/>
   </g>
   <g id="text_15">
    <text style="font-weight: 700; font-size: 10.5px; font-family: 'Helvetica Neue'; text-anchor: start; fill: #14110f" x="233.44118" y="422.288229" transform="rotate(-0 233.44118 422.288229)">0.0%</text>
   </g>
   <g id="text_16">
    <text style="font-weight: 700; font-size: 10.5px; font-family: 'Helvetica Neue'; text-anchor: start; fill: #14110f" x="234.26798" y="391.927334" transform="rotate(-0 234.26798 391.927334)">0.1%</text>
   </g>
   <g id="text_17">
    <text style="font-weight: 700; font-size: 10.5px; font-family: 'Helvetica Neue'; text-anchor: start; fill: #14110f" x="236.50034" y="361.56644" transform="rotate(-0 236.50034 361.56644)">0.4%</text>
   </g>
   <g id="text_18">
    <text style="font-weight: 700; font-size: 10.5px; font-family: 'Helvetica Neue'; text-anchor: start; fill: #14110f" x="237.16178" y="331.205545" transform="rotate(-0 237.16178 331.205545)">0.5%</text>
   </g>
   <g id="text_19">
    <text style="font-weight: 700; font-size: 10.5px; font-family: 'Helvetica Neue'; text-anchor: start; fill: #14110f" x="237.32714" y="300.844651" transform="rotate(-0 237.32714 300.844651)">0.5%</text>
   </g>
   <g id="text_20">
    <text style="font-weight: 700; font-size: 10.5px; font-family: 'Helvetica Neue'; text-anchor: start; fill: #14110f" x="239.31146" y="270.483756" transform="rotate(-0 239.31146 270.483756)">0.8%</text>
   </g>
   <g id="text_21">
    <text style="font-weight: 700; font-size: 10.5px; font-family: 'Helvetica Neue'; text-anchor: start; fill: #14110f" x="239.64218" y="240.122861" transform="rotate(-0 239.64218 240.122861)">0.8%</text>
   </g>
   <g id="text_22">
    <text style="font-weight: 700; font-size: 10.5px; font-family: 'Helvetica Neue'; text-anchor: start; fill: #14110f" x="241.13042" y="209.761967" transform="rotate(-0 241.13042 209.761967)">1.0%</text>
   </g>
   <g id="text_23">
    <text style="font-weight: 700; font-size: 10.5px; font-family: 'Helvetica Neue'; text-anchor: start; fill: #14110f" x="260.39486" y="179.401072" transform="rotate(-0 260.39486 179.401072)">3%</text>
   </g>
   <g id="text_24">
    <text style="font-weight: 700; font-size: 10.5px; font-family: 'Helvetica Neue'; text-anchor: start; fill: #14110f" x="267.91874" y="149.040178" transform="rotate(-0 267.91874 149.040178)">4%</text>
   </g>
   <g id="text_25">
    <text style="font-weight: 700; font-size: 10.5px; font-family: 'Helvetica Neue'; text-anchor: start; fill: #14110f" x="270.48182" y="118.679283" transform="rotate(-0 270.48182 118.679283)">5%</text>
   </g>
   <g id="text_26">
    <text style="font-weight: 700; font-size: 10.5px; font-family: 'Helvetica Neue'; text-anchor: start; fill: #14110f" x="315.45974" y="88.318388" transform="rotate(-0 315.45974 88.318388)">10%</text>
   </g>
   <g id="text_27">
    <text style="font-weight: 700; font-size: 10.5px; font-family: 'Helvetica Neue'; text-anchor: start; fill: #14110f" x="511.32866" y="57.957494" transform="rotate(-0 511.32866 57.957494)">34%</text>
   </g>
   <g id="text_28">
    <text style="font-weight: 700; font-size: 10.5px; font-family: 'Helvetica Neue'; text-anchor: start; fill: #14110f" x="566.06282" y="27.596599" transform="rotate(-0 566.06282 27.596599)">40%</text>
   </g>
   <g id="text_29">
    <text style="font-style: italic; font-size: 8.5px; font-family: 'Helvetica Neue'; text-anchor: end; fill: #938b82" x="620.05286" y="477.873449" transform="rotate(-0 620.05286 477.873449)">hatched bars = weaker inference (program stalled at Ph2, likely efficacy)</text>
   </g>
   <g id="legend_1">
    <g id="patch_17">
     <path d="M 441.893141 401.363812 
L 451.393141 401.363812 
L 451.393141 392.861312 
L 441.893141 392.861312 
z
" style="fill: #1f6fd0"/>
    </g>
    <g id="text_30">
     <text style="font-size: 9.5px; font-family: 'Helvetica Neue'; text-anchor: start; fill: #5b544e" x="458.993141" y="400.366312" transform="rotate(-0 458.993141 400.366312)">Biology (efficacy / safety / PK)  ·  79%</text>
    </g>
    <g id="patch_18">
     <path d="M 441.893141 416.554906 
L 451.393141 416.554906 
L 451.393141 408.052406 
L 441.893141 408.052406 
z
" style="fill: #e2673a"/>
    </g>
    <g id="text_31">
     <text style="font-size: 9.5px; font-family: 'Helvetica Neue'; text-anchor: start; fill: #5b544e" x="458.993141" y="415.557406" transform="rotate(-0 458.993141 415.557406)">Business &amp; operational  ·  15%</text>
    </g>
    <g id="patch_19">
     <path d="M 441.893141 431.631703 
L 451.393141 431.631703 
L 451.393141 423.129203 
L 441.893141 423.129203 
z
" style="fill: #c7c0b6"/>
    </g>
    <g id="text_32">
     <text style="font-size: 9.5px; font-family: 'Helvetica Neue'; text-anchor: start; fill: #5b544e" x="458.993141" y="430.634203" transform="rotate(-0 458.993141 430.634203)">Other / undisclosed  ·  7%</text>
    </g>
   </g>
  </g>
 </g>
 <defs>
  <clipPath id="pdbd8332a39">
   <rect x="227.1575" y="7.2" width="396.864" height="430.056"/>
  </clipPath>
 </defs>
 <defs>
  <pattern id="h16751cbb3d" patternUnits="userSpaceOnUse" x="0" y="0" width="72" height="72">
   <rect x="0" y="0" width="73" height="73" fill="#1f6fd0"/>
   <path d="M -36 36 
L 36 -36 
M -32 40 
L 40 -32 
M -28 44 
L 44 -28 
M -24 48 
L 48 -24 
M -20 52 
L 52 -20 
M -16 56 
L 56 -16 
M -12 60 
L 60 -12 
M -8 64 
L 64 -8 
M -4 68 
L 68 -4 
M 0 72 
L 72 0 
M 4 76 
L 76 4 
M 8 80 
L 80 8 
M 12 84 
L 84 12 
M 16 88 
L 88 16 
M 20 92 
L 92 20 
M 24 96 
L 96 24 
M 28 100 
L 100 28 
M 32 104 
L 104 32 
M 36 108 
L 108 36 
" style="fill: #fbfaf8; stroke: #fbfaf8; stroke-width: 1.0; stroke-linecap: butt; stroke-linejoin: miter"/>
  </pattern>
 </defs>
</svg>
