<?xml version="1.0" encoding="utf-8" standalone="no"?>
<!DOCTYPE svg PUBLIC "-//W3C//DTD SVG 1.1//EN"
  "http://www.w3.org/Graphics/SVG/1.1/DTD/svg11.dtd">
<svg xmlns:xlink="http://www.w3.org/1999/xlink" width="824.35pt" height="1070.980789pt" viewBox="0 0 824.35 1070.980789" xmlns="http://www.w3.org/2000/svg" version="1.1">
 <metadata>
  <rdf:RDF xmlns:dc="http://purl.org/dc/elements/1.1/" xmlns:cc="http://creativecommons.org/ns#" xmlns:rdf="http://www.w3.org/1999/02/22-rdf-syntax-ns#">
   <cc:Work>
    <dc:type rdf:resource="http://purl.org/dc/dcmitype/StillImage"/>
    <dc:date>2026-07-24T12:37:41.941706</dc:date>
    <dc:format>image/svg+xml</dc:format>
    <dc:creator>
     <cc:Agent>
      <dc:title>Matplotlib v3.10.8, https://matplotlib.org/</dc:title>
     </cc:Agent>
    </dc:creator>
   </cc:Work>
  </rdf:RDF>
 </metadata>
 <defs>
  <style type="text/css">*{stroke-linejoin: round; stroke-linecap: butt}</style>
 </defs>
 <g id="figure_1">
  <g id="patch_1">
   <path d="M 0 1070.980789 
L 824.35 1070.980789 
L 824.35 0 
L 0 0 
z
" style="fill: #fbfaf8"/>
  </g>
  <g id="axes_1">
   <g id="patch_2">
    <path d="M 216.85 165.614597 
L 817.15 165.614597 
L 817.15 24.238281 
L 216.85 24.238281 
z
" style="fill: #fbfaf8"/>
   </g>
   <g id="matplotlib.axis_1"/>
   <g id="matplotlib.axis_2">
    <g id="ytick_1">
     <g id="line2d_1"/>
     <g id="text_1">
      <text style="font-size: 10.5px; font-family: 'Helvetica Neue'; text-anchor: end; fill: #14110f" x="213.35" y="44.369384" transform="rotate(-0 213.35 44.369384)">Reached Phase 1</text>
     </g>
    </g>
    <g id="ytick_2">
     <g id="line2d_2"/>
     <g id="text_2">
      <text style="font-size: 10.5px; font-family: 'Helvetica Neue'; text-anchor: end; fill: #14110f" x="213.35" y="80.573306" transform="rotate(-0 213.35 80.573306)">Reached Phase 2</text>
     </g>
    </g>
    <g id="ytick_3">
     <g id="line2d_3"/>
     <g id="text_3">
      <text style="font-size: 10.5px; font-family: 'Helvetica Neue'; text-anchor: end; fill: #14110f" x="213.35" y="116.777228" transform="rotate(-0 213.35 116.777228)">Reached Phase 3</text>
     </g>
    </g>
    <g id="ytick_4">
     <g id="line2d_4"/>
     <g id="text_4">
      <text style="font-size: 10.5px; font-family: 'Helvetica Neue'; text-anchor: end; fill: #14110f" x="213.35" y="152.98115" transform="rotate(-0 213.35 152.98115)">Approved</text>
     </g>
    </g>
   </g>
   <g id="patch_3">
    <path d="M 216.85 30.664477 
L 630.85 30.664477 
L 630.85 50.576635 
L 216.85 50.576635 
z
" clip-path="url(#p5ea504db7a)" style="fill: #1f6fd0; stroke: #fbfaf8; stroke-width: 0.5; stroke-linejoin: miter"/>
   </g>
   <g id="patch_4">
    <path d="M 216.85 66.868399 
L 438.107674 66.868399 
L 438.107674 86.780557 
L 216.85 86.780557 
z
" clip-path="url(#p5ea504db7a)" style="fill: #1f6fd0; stroke: #fbfaf8; stroke-width: 0.5; stroke-linejoin: miter"/>
   </g>
   <g id="patch_5">
    <path d="M 216.85 103.072321 
L 319.999767 103.072321 
L 319.999767 122.984479 
L 216.85 122.984479 
z
" clip-path="url(#p5ea504db7a)" style="fill: #1f6fd0; stroke: #fbfaf8; stroke-width: 0.5; stroke-linejoin: miter"/>
   </g>
   <g id="patch_6">
    <path d="M 216.85 139.276243 
L 248.407209 139.276243 
L 248.407209 159.188401 
L 216.85 159.188401 
z
" clip-path="url(#p5ea504db7a)" style="fill: #2f8f5b; stroke: #fbfaf8; stroke-width: 0.5; stroke-linejoin: miter"/>
   </g>
   <g id="text_5">
    <text style="font-weight: 700; font-size: 10px; font-family: 'Helvetica Neue'; text-anchor: start; fill: #14110f" x="637.06" y="43.290087" transform="rotate(-0 637.06 43.290087)">74,175   (100% of Ph1 entrants)</text>
   </g>
   <g id="text_6">
    <text style="font-weight: 700; font-size: 10px; font-family: 'Helvetica Neue'; text-anchor: start; fill: #14110f" x="444.317674" y="79.494009" transform="rotate(-0 444.317674 79.494009)">39,642   (53% of Ph1 entrants)</text>
   </g>
   <g id="text_7">
    <text style="font-weight: 700; font-size: 10px; font-family: 'Helvetica Neue'; text-anchor: start; fill: #14110f" x="326.209767" y="115.697931" transform="rotate(-0 326.209767 115.697931)">18,481   (25% of Ph1 entrants)</text>
   </g>
   <g id="text_8">
    <text style="font-weight: 700; font-size: 10px; font-family: 'Helvetica Neue'; text-anchor: start; fill: #14110f" x="254.617209" y="151.901853" transform="rotate(-0 254.617209 151.901853)">5,654   (8% of Ph1 entrants)</text>
   </g>
   <g id="patch_7">
    <path d="M 627.683493 52.882932 
Q 534.307525 58.995747 441.824075 65.050135 
" style="fill: none; stroke: #938b82; stroke-width: 0.8; stroke-linecap: round"/>
    <path d="M 445.327865 66.5244 
L 441.824075 65.050135 
L 445.105761 63.131662 
" style="fill: none; stroke: #938b82; stroke-width: 0.8; stroke-linecap: round"/>
   </g>
   <g id="text_9">
    <text style="font-style: italic; font-size: 8.5px; font-family: 'Helvetica Neue'; text-anchor: start; fill: #5b544e" x="631.678" y="52.205811" transform="rotate(-0 631.678 52.205811)">53% advance to Ph2</text>
   </g>
   <g id="patch_8">
    <path d="M 434.950533 90.443584 
Q 378.883475 95.847528 323.706719 101.165661 
" style="fill: none; stroke: #938b82; stroke-width: 0.8; stroke-linecap: round"/>
    <path d="M 327.254132 102.531627 
L 323.706719 101.165661 
L 326.92794 99.14731 
" style="fill: none; stroke: #938b82; stroke-width: 0.8; stroke-linecap: round"/>
   </g>
   <g id="text_10">
    <text style="font-style: italic; font-size: 8.5px; font-family: 'Helvetica Neue'; text-anchor: start; fill: #5b544e" x="438.935674" y="88.409733" transform="rotate(-0 438.935674 88.409733)">47% advance to Ph3</text>
   </g>
   <g id="patch_9">
    <path d="M 326.949715 128.522411 
Q 289.086187 132.968063 252.110984 137.309415 
" style="fill: none; stroke: #938b82; stroke-width: 0.8; stroke-linecap: round"/>
    <path d="M 255.686028 138.601338 
L 252.110984 137.309415 
L 255.289549 135.224534 
" style="fill: none; stroke: #938b82; stroke-width: 0.8; stroke-linecap: round"/>
   </g>
   <g id="text_11">
    <text style="font-style: italic; font-size: 8.5px; font-family: 'Helvetica Neue'; text-anchor: start; fill: #5b544e" x="320.827767" y="124.613655" transform="rotate(-0 320.827767 124.613655)">31% of Ph3 entrants approved</text>
   </g>
   <g id="text_12">
    <text style="font-weight: 700; font-size: 11.5px; font-family: 'Helvetica Neue'; text-anchor: start; fill: #14110f" x="216.85" y="16.238281" transform="rotate(-0 216.85 16.238281)">A. Where programs stop  |  attrition through the pipeline</text>
   </g>
  </g>
  <g id="axes_2">
   <g id="patch_10">
    <path d="M 216.85 709.389796 
L 817.15 709.389796 
L 817.15 300.969328 
L 216.85 300.969328 
z
" style="fill: #fbfaf8"/>
   </g>
   <g id="matplotlib.axis_3"/>
   <g id="matplotlib.axis_4">
    <g id="ytick_5">
     <g id="line2d_5"/>
     <g id="text_13">
      <text style="font-size: 10px; font-family: 'Helvetica Neue'; text-anchor: end; fill: #14110f" x="213.35" y="696.350205" transform="rotate(-0 213.35 696.350205)">Manufacturing / supply</text>
     </g>
    </g>
    <g id="ytick_6">
     <g id="line2d_6"/>
     <g id="text_14">
      <text style="font-size: 10px; font-family: 'Helvetica Neue'; text-anchor: end; fill: #14110f" x="213.35" y="669.477837" transform="rotate(-0 213.35 669.477837)">PK / PD / formulation</text>
     </g>
    </g>
    <g id="ytick_7">
     <g id="line2d_7"/>
     <g id="text_15">
      <text style="font-size: 10px; font-family: 'Helvetica Neue'; text-anchor: end; fill: #14110f" x="213.35" y="642.774218" transform="rotate(-0 213.35 642.774218)">Competitive landscape</text>
     </g>
    </g>
    <g id="ytick_8">
     <g id="line2d_8"/>
     <g id="text_16">
      <text style="font-size: 10px; font-family: 'Helvetica Neue'; text-anchor: end; fill: #14110f" x="213.35" y="615.901849" transform="rotate(-0 213.35 615.901849)">Unknown</text>
     </g>
    </g>
    <g id="ytick_9">
     <g id="line2d_9"/>
     <g id="text_17">
      <text style="font-size: 10px; font-family: 'Helvetica Neue'; text-anchor: end; fill: #14110f" x="213.35" y="589.198231" transform="rotate(-0 213.35 589.198231)">COVID-19 disruption</text>
     </g>
    </g>
    <g id="ytick_10">
     <g id="line2d_10"/>
     <g id="text_18">
      <text style="font-size: 10px; font-family: 'Helvetica Neue'; text-anchor: end; fill: #14110f" x="213.35" y="562.410237" transform="rotate(-0 213.35 562.410237)">Safety / toxicity</text>
     </g>
    </g>
    <g id="ytick_11">
     <g id="line2d_11"/>
     <g id="text_19">
      <text style="font-size: 10px; font-family: 'Helvetica Neue'; text-anchor: end; fill: #14110f" x="213.35" y="535.622243" transform="rotate(-0 213.35 535.622243)">Planned (per protocol)</text>
     </g>
    </g>
    <g id="ytick_12">
     <g id="line2d_12"/>
     <g id="text_20">
      <text style="font-size: 10px; font-family: 'Helvetica Neue'; text-anchor: end; fill: #14110f" x="213.35" y="508.834249" transform="rotate(-0 213.35 508.834249)">Regulatory / administrative</text>
     </g>
    </g>
    <g id="ytick_13">
     <g id="line2d_13"/>
     <g id="text_21">
      <text style="font-size: 10px; font-family: 'Helvetica Neue'; text-anchor: end; fill: #14110f" x="213.35" y="482.046256" transform="rotate(-0 213.35 482.046256)">Enrollment / operational</text>
     </g>
    </g>
    <g id="ytick_14">
     <g id="line2d_14"/>
     <g id="text_22">
      <text style="font-size: 10px; font-family: 'Helvetica Neue'; text-anchor: end; fill: #14110f" x="213.35" y="455.258262" transform="rotate(-0 213.35 455.258262)">Efficacy (explicit termination)</text>
     </g>
    </g>
    <g id="ytick_15">
     <g id="line2d_15"/>
     <g id="text_23">
      <text style="font-size: 10px; font-family: 'Helvetica Neue'; text-anchor: end; fill: #14110f" x="213.35" y="428.385893" transform="rotate(-0 213.35 428.385893)">Unclassified termination</text>
     </g>
    </g>
    <g id="ytick_16">
     <g id="line2d_16"/>
     <g id="text_24">
      <text style="font-size: 10px; font-family: 'Helvetica Neue'; text-anchor: end; fill: #14110f" x="213.35" y="401.682275" transform="rotate(-0 213.35 401.682275)">Commercial / strategic</text>
     </g>
    </g>
    <g id="ytick_17">
     <g id="line2d_17"/>
     <g id="text_25">
      <text style="font-size: 10px; font-family: 'Helvetica Neue'; text-anchor: end; fill: #14110f" x="213.35" y="374.894281" transform="rotate(-0 213.35 374.894281)">Silent efficacy fail (Ph3 complete, no approval)</text>
     </g>
    </g>
    <g id="ytick_18">
     <g id="line2d_18"/>
     <g id="text_26">
      <text style="font-size: 10px; font-family: 'Helvetica Neue'; text-anchor: end; fill: #14110f" x="213.35" y="348.106287" transform="rotate(-0 213.35 348.106287)">Phase 2 stall (Ph2 complete, program halted)</text>
     </g>
    </g>
    <g id="ytick_19">
     <g id="line2d_19"/>
     <g id="text_27">
      <text style="font-size: 10px; font-family: 'Helvetica Neue'; text-anchor: end; fill: #14110f" x="213.35" y="321.318294" transform="rotate(-0 213.35 321.318294)">Phase 1 stall (Ph1 complete, program halted)</text>
     </g>
    </g>
   </g>
   <g id="patch_11">
    <path d="M 216.85 701.535556 
L 218.4508 701.535556 
L 218.4508 683.85548 
L 216.85 683.85548 
z
" clip-path="url(#pb25ea104fa)" style="fill: #e2673a; stroke: #fbfaf8; stroke-width: 0.5; stroke-linejoin: miter"/>
   </g>
   <g id="patch_12">
    <path d="M 216.85 674.747562 
L 218.5842 674.747562 
L 218.5842 657.067486 
L 216.85 657.067486 
z
" clip-path="url(#pb25ea104fa)" style="fill: #1f6fd0; stroke: #fbfaf8; stroke-width: 0.5; stroke-linejoin: miter"/>
   </g>
   <g id="patch_13">
    <path d="M 216.85 647.959568 
L 220.7186 647.959568 
L 220.7186 630.279493 
L 216.85 630.279493 
z
" clip-path="url(#pb25ea104fa)" style="fill: #e2673a; stroke: #fbfaf8; stroke-width: 0.5; stroke-linejoin: miter"/>
   </g>
   <g id="patch_14">
    <path d="M 216.85 621.171575 
L 223.1198 621.171575 
L 223.1198 603.491499 
L 216.85 603.491499 
z
" clip-path="url(#pb25ea104fa)" style="fill: #c7c0b6; stroke: #fbfaf8; stroke-width: 0.5; stroke-linejoin: miter"/>
   </g>
   <g id="patch_15">
    <path d="M 216.85 594.383581 
L 223.3866 594.383581 
L 223.3866 576.703505 
L 216.85 576.703505 
z
" clip-path="url(#pb25ea104fa)" style="fill: #c7c0b6; stroke: #fbfaf8; stroke-width: 0.5; stroke-linejoin: miter"/>
   </g>
   <g id="patch_16">
    <path d="M 216.85 567.595587 
L 223.7868 567.595587 
L 223.7868 549.915511 
L 216.85 549.915511 
z
" clip-path="url(#pb25ea104fa)" style="fill: #1f6fd0; stroke: #fbfaf8; stroke-width: 0.5; stroke-linejoin: miter"/>
   </g>
   <g id="patch_17">
    <path d="M 216.85 540.807594 
L 225.521 540.807594 
L 225.521 523.127518 
L 216.85 523.127518 
z
" clip-path="url(#pb25ea104fa)" style="fill: #c7c0b6; stroke: #fbfaf8; stroke-width: 0.5; stroke-linejoin: miter"/>
   </g>
   <g id="patch_18">
    <path d="M 216.85 514.0196 
L 226.5882 514.0196 
L 226.5882 496.339524 
L 216.85 496.339524 
z
" clip-path="url(#pb25ea104fa)" style="fill: #e2673a; stroke: #fbfaf8; stroke-width: 0.5; stroke-linejoin: miter"/>
   </g>
   <g id="patch_19">
    <path d="M 216.85 487.231606 
L 247.1318 487.231606 
L 247.1318 469.55153 
L 216.85 469.55153 
z
" clip-path="url(#pb25ea104fa)" style="fill: #e2673a; stroke: #fbfaf8; stroke-width: 0.5; stroke-linejoin: miter"/>
   </g>
   <g id="patch_20">
    <path d="M 216.85 460.443613 
L 259.0044 460.443613 
L 259.0044 442.763537 
L 216.85 442.763537 
z
" clip-path="url(#pb25ea104fa)" style="fill: #1f6fd0; stroke: #fbfaf8; stroke-width: 0.5; stroke-linejoin: miter"/>
   </g>
   <g id="patch_21">
    <path d="M 216.85 433.655619 
L 273.6784 433.655619 
L 273.6784 415.975543 
L 216.85 415.975543 
z
" clip-path="url(#pb25ea104fa)" style="fill: #c7c0b6; stroke: #fbfaf8; stroke-width: 0.5; stroke-linejoin: miter"/>
   </g>
   <g id="patch_22">
    <path d="M 216.85 406.867625 
L 356.6532 406.867625 
L 356.6532 389.187549 
L 216.85 389.187549 
z
" clip-path="url(#pb25ea104fa)" style="fill: #e2673a; stroke: #fbfaf8; stroke-width: 0.5; stroke-linejoin: miter"/>
   </g>
   <g id="patch_23">
    <path d="M 216.85 380.079631 
L 449.633 380.079631 
L 449.633 362.399556 
L 216.85 362.399556 
z
" clip-path="url(#pb25ea104fa)" style="fill: #1f6fd0; stroke: #fbfaf8; stroke-width: 0.5; stroke-linejoin: miter"/>
   </g>
   <g id="patch_24">
    <path d="M 216.85 353.291638 
L 495.3892 353.291638 
L 495.3892 335.611562 
L 216.85 335.611562 
z
" clip-path="url(#pb25ea104fa)" style="fill: url(#habea9022fb); stroke: #fbfaf8; stroke-width: 0.5; stroke-linejoin: miter"/>
   </g>
   <g id="patch_25">
    <path d="M 216.85 326.503644 
L 725.104 326.503644 
L 725.104 308.823568 
L 216.85 308.823568 
z
" clip-path="url(#pb25ea104fa)" style="fill: url(#he1f3380b01); stroke: #fbfaf8; stroke-width: 0.5; stroke-linejoin: miter"/>
   </g>
   <g id="text_28">
    <text style="font-weight: 700; font-size: 10px; font-family: 'Helvetica Neue'; text-anchor: start; fill: #14110f" x="226.4548" y="695.280674" transform="rotate(-0 226.4548 695.280674)">0.1%</text>
   </g>
   <g id="text_29">
    <text style="font-weight: 700; font-size: 10px; font-family: 'Helvetica Neue'; text-anchor: start; fill: #14110f" x="226.5882" y="668.49268" transform="rotate(-0 226.5882 668.49268)">0.1%</text>
   </g>
   <g id="text_30">
    <text style="font-weight: 700; font-size: 10px; font-family: 'Helvetica Neue'; text-anchor: start; fill: #14110f" x="228.7226" y="641.704687" transform="rotate(-0 228.7226 641.704687)">0.3%</text>
   </g>
   <g id="text_31">
    <text style="font-weight: 700; font-size: 10px; font-family: 'Helvetica Neue'; text-anchor: start; fill: #14110f" x="231.1238" y="614.916693" transform="rotate(-0 231.1238 614.916693)">0.5%</text>
   </g>
   <g id="text_32">
    <text style="font-weight: 700; font-size: 10px; font-family: 'Helvetica Neue'; text-anchor: start; fill: #14110f" x="231.3906" y="588.128699" transform="rotate(-0 231.3906 588.128699)">0.5%</text>
   </g>
   <g id="text_33">
    <text style="font-weight: 700; font-size: 10px; font-family: 'Helvetica Neue'; text-anchor: start; fill: #14110f" x="231.7908" y="561.340706" transform="rotate(-0 231.7908 561.340706)">0.5%</text>
   </g>
   <g id="text_34">
    <text style="font-weight: 700; font-size: 10px; font-family: 'Helvetica Neue'; text-anchor: start; fill: #14110f" x="233.525" y="534.552712" transform="rotate(-0 233.525 534.552712)">0.7%</text>
   </g>
   <g id="text_35">
    <text style="font-weight: 700; font-size: 10px; font-family: 'Helvetica Neue'; text-anchor: start; fill: #14110f" x="234.5922" y="507.764718" transform="rotate(-0 234.5922 507.764718)">0.7%</text>
   </g>
   <g id="text_36">
    <text style="font-weight: 700; font-size: 10px; font-family: 'Helvetica Neue'; text-anchor: start; fill: #14110f" x="255.1358" y="480.976725" transform="rotate(-0 255.1358 480.976725)">2%</text>
   </g>
   <g id="text_37">
    <text style="font-weight: 700; font-size: 10px; font-family: 'Helvetica Neue'; text-anchor: start; fill: #14110f" x="267.0084" y="454.188731" transform="rotate(-0 267.0084 454.188731)">3%</text>
   </g>
   <g id="text_38">
    <text style="font-weight: 700; font-size: 10px; font-family: 'Helvetica Neue'; text-anchor: start; fill: #14110f" x="281.6824" y="427.400737" transform="rotate(-0 281.6824 427.400737)">4%</text>
   </g>
   <g id="text_39">
    <text style="font-weight: 700; font-size: 10px; font-family: 'Helvetica Neue'; text-anchor: start; fill: #14110f" x="364.6572" y="400.612743" transform="rotate(-0 364.6572 400.612743)">10%</text>
   </g>
   <g id="text_40">
    <text style="font-weight: 700; font-size: 10px; font-family: 'Helvetica Neue'; text-anchor: start; fill: #14110f" x="457.637" y="373.82475" transform="rotate(-0 457.637 373.82475)">17%</text>
   </g>
   <g id="text_41">
    <text style="font-weight: 700; font-size: 10px; font-family: 'Helvetica Neue'; text-anchor: start; fill: #14110f" x="503.3932" y="347.036756" transform="rotate(-0 503.3932 347.036756)">21%</text>
   </g>
   <g id="text_42">
    <text style="font-weight: 700; font-size: 10px; font-family: 'Helvetica Neue'; text-anchor: start; fill: #14110f" x="733.108" y="320.248762" transform="rotate(-0 733.108 320.248762)">38%</text>
   </g>
   <g id="text_43">
    <text style="font-style: italic; font-size: 8.5px; font-family: 'Helvetica Neue'; text-anchor: end; fill: #938b82" x="817.15" y="727.855378" transform="rotate(-0 817.15 727.855378)">hatched bars = weaker inference (program stalled, no explicit reason)</text>
   </g>
   <g id="text_44">
    <text style="font-weight: 700; font-size: 11.5px; font-family: 'Helvetica Neue'; text-anchor: start; fill: #14110f" x="216.85" y="292.969328" transform="rotate(-0 216.85 292.969328)">B. Why they stop  |  overall failure reasons  (n=69,029 programs)</text>
   </g>
   <g id="legend_1">
    <g id="patch_26">
     <path d="M 635.021641 675.397608 
L 644.521641 675.397608 
L 644.521641 666.895108 
L 635.021641 666.895108 
z
" style="fill: #1f6fd0"/>
    </g>
    <g id="text_45">
     <text style="font-size: 9.5px; font-family: 'Helvetica Neue'; text-anchor: start; fill: #5b544e" x="652.121641" y="674.400108" transform="rotate(-0 652.121641 674.400108)">Biology (efficacy / safety / PK)  ·  42%</text>
    </g>
    <g id="patch_27">
     <path d="M 635.021641 689.638702 
L 644.521641 689.638702 
L 644.521641 681.136202 
L 635.021641 681.136202 
z
" style="fill: #e2673a"/>
    </g>
    <g id="text_46">
     <text style="font-size: 9.5px; font-family: 'Helvetica Neue'; text-anchor: start; fill: #5b544e" x="652.121641" y="688.641202" transform="rotate(-0 652.121641 688.641202)">Business &amp; operational  ·  14%</text>
    </g>
    <g id="patch_28">
     <path d="M 635.021641 703.765499 
L 644.521641 703.765499 
L 644.521641 695.262999 
L 635.021641 695.262999 
z
" style="fill: #c7c0b6"/>
    </g>
    <g id="text_47">
     <text style="font-size: 9.5px; font-family: 'Helvetica Neue'; text-anchor: start; fill: #5b544e" x="652.121641" y="702.767999" transform="rotate(-0 652.121641 702.767999)">Other / undisclosed  ·  44%</text>
    </g>
   </g>
  </g>
  <g id="axes_3">
   <g id="patch_29">
    <path d="M 216.85 1033.246281 
L 817.15 1033.246281 
L 817.15 844.744527 
L 216.85 844.744527 
z
" style="fill: #fbfaf8"/>
   </g>
   <g id="matplotlib.axis_5"/>
   <g id="matplotlib.axis_6">
    <g id="ytick_20">
     <g id="line2d_20"/>
     <g id="text_48">
      <text style="font-size: 10.5px; font-family: 'DejaVu Sans Mono', 'Bitstream Vera Sans Mono', 'Computer Modern Typewriter', 'Andale Mono', 'Nimbus Mono L', 'Courier New', 'Courier', 'Fixed', 'Terminal', monospace; text-anchor: end; fill: #14110f" x="213.35" y="879.070224" transform="rotate(-0 213.35 879.070224)">Failed at Ph1   n=33,229</text>
     </g>
    </g>
    <g id="ytick_21">
     <g id="line2d_21"/>
     <g id="text_49">
      <text style="font-size: 10.5px; font-family: 'DejaVu Sans Mono', 'Bitstream Vera Sans Mono', 'Computer Modern Typewriter', 'Andale Mono', 'Nimbus Mono L', 'Courier New', 'Courier', 'Fixed', 'Terminal', monospace; text-anchor: end; fill: #14110f" x="213.35" y="943.012475" transform="rotate(-0 213.35 943.012475)">Failed at Ph2   n=20,240</text>
     </g>
    </g>
    <g id="ytick_22">
     <g id="line2d_22"/>
     <g id="text_50">
      <text style="font-size: 10.5px; font-family: 'DejaVu Sans Mono', 'Bitstream Vera Sans Mono', 'Computer Modern Typewriter', 'Andale Mono', 'Nimbus Mono L', 'Courier New', 'Courier', 'Fixed', 'Terminal', monospace; text-anchor: end; fill: #14110f" x="213.35" y="1006.954725" transform="rotate(-0 213.35 1006.954725)">Failed at Ph3   n=15,560</text>
     </g>
    </g>
   </g>
   <g id="patch_30">
    <path d="M 216.85 853.312789 
L 216.85 853.312789 
L 216.85 896.793519 
L 216.85 896.793519 
z
" clip-path="url(#p8976bd481b)" style="fill: url(#habea9022fb); stroke: #fbfaf8; stroke-width: 0.5; stroke-linejoin: miter"/>
   </g>
   <g id="patch_31">
    <path d="M 216.85 917.255039 
L 644.415455 917.255039 
L 644.415455 960.735769 
L 216.85 960.735769 
z
" clip-path="url(#p8976bd481b)" style="fill: url(#habea9022fb); stroke: #fbfaf8; stroke-width: 0.5; stroke-linejoin: miter"/>
   </g>
   <g id="patch_32">
    <path d="M 216.85 981.197289 
L 216.85 981.197289 
L 216.85 1024.67802 
L 216.85 1024.67802 
z
" clip-path="url(#p8976bd481b)" style="fill: url(#habea9022fb); stroke: #fbfaf8; stroke-width: 0.5; stroke-linejoin: miter"/>
   </g>
   <g id="text_51">
    <text style="font-weight: 700; font-size: 9px; font-family: 'Helvetica Neue'; text-anchor: middle; fill: #ffffff" x="430.632727" y="941.322045" transform="rotate(-0 430.632727 941.322045)">71%</text>
   </g>
   <g id="patch_33">
    <path d="M 216.85 853.312789 
L 216.85 853.312789 
L 216.85 896.793519 
L 216.85 896.793519 
z
" clip-path="url(#p8976bd481b)" style="fill: #1f6fd0; stroke: #fbfaf8; stroke-width: 0.5; stroke-linejoin: miter"/>
   </g>
   <g id="patch_34">
    <path d="M 644.415455 917.255039 
L 644.415455 917.255039 
L 644.415455 960.735769 
L 644.415455 960.735769 
z
" clip-path="url(#p8976bd481b)" style="fill: #1f6fd0; stroke: #fbfaf8; stroke-width: 0.5; stroke-linejoin: miter"/>
   </g>
   <g id="patch_35">
    <path d="M 216.85 981.197289 
L 681.580964 981.197289 
L 681.580964 1024.67802 
L 216.85 1024.67802 
z
" clip-path="url(#p8976bd481b)" style="fill: #1f6fd0; stroke: #fbfaf8; stroke-width: 0.5; stroke-linejoin: miter"/>
   </g>
   <g id="text_52">
    <text style="font-weight: 700; font-size: 9px; font-family: 'Helvetica Neue'; text-anchor: middle; fill: #ffffff" x="449.215482" y="1005.264295" transform="rotate(-0 449.215482 1005.264295)">77%</text>
   </g>
   <g id="patch_36">
    <path d="M 216.85 853.312789 
L 229.062309 853.312789 
L 229.062309 896.793519 
L 216.85 896.793519 
z
" clip-path="url(#p8976bd481b)" style="fill: #1f6fd0; stroke: #fbfaf8; stroke-width: 0.5; stroke-linejoin: miter"/>
   </g>
   <g id="patch_37">
    <path d="M 644.415455 917.255039 
L 669.091818 917.255039 
L 669.091818 960.735769 
L 644.415455 960.735769 
z
" clip-path="url(#p8976bd481b)" style="fill: #1f6fd0; stroke: #fbfaf8; stroke-width: 0.5; stroke-linejoin: miter"/>
   </g>
   <g id="patch_38">
    <path d="M 681.580964 981.197289 
L 707.622256 981.197289 
L 707.622256 1024.67802 
L 681.580964 1024.67802 
z
" clip-path="url(#p8976bd481b)" style="fill: #1f6fd0; stroke: #fbfaf8; stroke-width: 0.5; stroke-linejoin: miter"/>
   </g>
   <g id="patch_39">
    <path d="M 229.062309 853.312789 
L 232.332172 853.312789 
L 232.332172 896.793519 
L 229.062309 896.793519 
z
" clip-path="url(#p8976bd481b)" style="fill: #1f6fd0; stroke: #fbfaf8; stroke-width: 0.5; stroke-linejoin: miter"/>
   </g>
   <g id="patch_40">
    <path d="M 669.091818 917.255039 
L 672.62125 917.255039 
L 672.62125 960.735769 
L 669.091818 960.735769 
z
" clip-path="url(#p8976bd481b)" style="fill: #1f6fd0; stroke: #fbfaf8; stroke-width: 0.5; stroke-linejoin: miter"/>
   </g>
   <g id="patch_41">
    <path d="M 707.622256 981.197289 
L 710.014197 981.197289 
L 710.014197 1024.67802 
L 707.622256 1024.67802 
z
" clip-path="url(#p8976bd481b)" style="fill: #1f6fd0; stroke: #fbfaf8; stroke-width: 0.5; stroke-linejoin: miter"/>
   </g>
   <g id="patch_42">
    <path d="M 232.332172 853.312789 
L 233.705154 853.312789 
L 233.705154 896.793519 
L 232.332172 896.793519 
z
" clip-path="url(#p8976bd481b)" style="fill: #1f6fd0; stroke: #fbfaf8; stroke-width: 0.5; stroke-linejoin: miter"/>
   </g>
   <g id="patch_43">
    <path d="M 672.62125 917.255039 
L 672.9475 917.255039 
L 672.9475 960.735769 
L 672.62125 960.735769 
z
" clip-path="url(#p8976bd481b)" style="fill: #1f6fd0; stroke: #fbfaf8; stroke-width: 0.5; stroke-linejoin: miter"/>
   </g>
   <g id="patch_44">
    <path d="M 710.014197 981.197289 
L 710.091356 981.197289 
L 710.091356 1024.67802 
L 710.014197 1024.67802 
z
" clip-path="url(#p8976bd481b)" style="fill: #1f6fd0; stroke: #fbfaf8; stroke-width: 0.5; stroke-linejoin: miter"/>
   </g>
   <g id="patch_45">
    <path d="M 233.705154 853.312789 
L 299.897311 853.312789 
L 299.897311 896.793519 
L 233.705154 896.793519 
z
" clip-path="url(#p8976bd481b)" style="fill: #e2673a; stroke: #fbfaf8; stroke-width: 0.5; stroke-linejoin: miter"/>
   </g>
   <g id="patch_46">
    <path d="M 672.9475 917.255039 
L 738.464432 917.255039 
L 738.464432 960.735769 
L 672.9475 960.735769 
z
" clip-path="url(#p8976bd481b)" style="fill: #e2673a; stroke: #fbfaf8; stroke-width: 0.5; stroke-linejoin: miter"/>
   </g>
   <g id="patch_47">
    <path d="M 710.091356 981.197289 
L 762.482577 981.197289 
L 762.482577 1024.67802 
L 710.091356 1024.67802 
z
" clip-path="url(#p8976bd481b)" style="fill: #e2673a; stroke: #fbfaf8; stroke-width: 0.5; stroke-linejoin: miter"/>
   </g>
   <g id="text_53">
    <text style="font-weight: 700; font-size: 9px; font-family: 'Helvetica Neue'; text-anchor: middle; fill: #ffffff" x="266.801232" y="877.379795" transform="rotate(-0 266.801232 877.379795)">11%</text>
   </g>
   <g id="text_54">
    <text style="font-weight: 700; font-size: 9px; font-family: 'Helvetica Neue'; text-anchor: middle; fill: #ffffff" x="705.705966" y="941.322045" transform="rotate(-0 705.705966 941.322045)">11%</text>
   </g>
   <g id="text_55">
    <text style="font-weight: 700; font-size: 9px; font-family: 'Helvetica Neue'; text-anchor: middle; fill: #ffffff" x="736.286967" y="1005.264295" transform="rotate(-0 736.286967 1005.264295)">9%</text>
   </g>
   <g id="patch_48">
    <path d="M 299.897311 853.312789 
L 306.852546 853.312789 
L 306.852546 896.793519 
L 299.897311 896.793519 
z
" clip-path="url(#p8976bd481b)" style="fill: #e2673a; stroke: #fbfaf8; stroke-width: 0.5; stroke-linejoin: miter"/>
   </g>
   <g id="patch_49">
    <path d="M 738.464432 917.255039 
L 761.6875 917.255039 
L 761.6875 960.735769 
L 738.464432 960.735769 
z
" clip-path="url(#p8976bd481b)" style="fill: #e2673a; stroke: #fbfaf8; stroke-width: 0.5; stroke-linejoin: miter"/>
   </g>
   <g id="patch_50">
    <path d="M 762.482577 981.197289 
L 777.914454 981.197289 
L 777.914454 1024.67802 
L 762.482577 1024.67802 
z
" clip-path="url(#p8976bd481b)" style="fill: #e2673a; stroke: #fbfaf8; stroke-width: 0.5; stroke-linejoin: miter"/>
   </g>
   <g id="patch_51">
    <path d="M 306.852546 853.312789 
L 309.761099 853.312789 
L 309.761099 896.793519 
L 306.852546 896.793519 
z
" clip-path="url(#p8976bd481b)" style="fill: #e2673a; stroke: #fbfaf8; stroke-width: 0.5; stroke-linejoin: miter"/>
   </g>
   <g id="patch_52">
    <path d="M 761.6875 917.255039 
L 766.9075 917.255039 
L 766.9075 960.735769 
L 761.6875 960.735769 
z
" clip-path="url(#p8976bd481b)" style="fill: #e2673a; stroke: #fbfaf8; stroke-width: 0.5; stroke-linejoin: miter"/>
   </g>
   <g id="patch_53">
    <path d="M 777.914454 981.197289 
L 784.473001 981.197289 
L 784.473001 1024.67802 
L 777.914454 1024.67802 
z
" clip-path="url(#p8976bd481b)" style="fill: #e2673a; stroke: #fbfaf8; stroke-width: 0.5; stroke-linejoin: miter"/>
   </g>
   <g id="patch_54">
    <path d="M 309.761099 853.312789 
L 310.736638 853.312789 
L 310.736638 896.793519 
L 309.761099 896.793519 
z
" clip-path="url(#p8976bd481b)" style="fill: #e2673a; stroke: #fbfaf8; stroke-width: 0.5; stroke-linejoin: miter"/>
   </g>
   <g id="patch_55">
    <path d="M 766.9075 917.255039 
L 769.369205 917.255039 
L 769.369205 960.735769 
L 766.9075 960.735769 
z
" clip-path="url(#p8976bd481b)" style="fill: #e2673a; stroke: #fbfaf8; stroke-width: 0.5; stroke-linejoin: miter"/>
   </g>
   <g id="patch_56">
    <path d="M 784.473001 981.197289 
L 786.864942 981.197289 
L 786.864942 1024.67802 
L 784.473001 1024.67802 
z
" clip-path="url(#p8976bd481b)" style="fill: #e2673a; stroke: #fbfaf8; stroke-width: 0.5; stroke-linejoin: miter"/>
   </g>
   <g id="patch_57">
    <path d="M 310.736638 853.312789 
L 311.332801 853.312789 
L 311.332801 896.793519 
L 310.736638 896.793519 
z
" clip-path="url(#p8976bd481b)" style="fill: #e2673a; stroke: #fbfaf8; stroke-width: 0.5; stroke-linejoin: miter"/>
   </g>
   <g id="patch_58">
    <path d="M 769.369205 917.255039 
L 770.555568 917.255039 
L 770.555568 960.735769 
L 769.369205 960.735769 
z
" clip-path="url(#p8976bd481b)" style="fill: #e2673a; stroke: #fbfaf8; stroke-width: 0.5; stroke-linejoin: miter"/>
   </g>
   <g id="patch_59">
    <path d="M 786.864942 981.197289 
L 787.289319 981.197289 
L 787.289319 1024.67802 
L 786.864942 1024.67802 
z
" clip-path="url(#p8976bd481b)" style="fill: #e2673a; stroke: #fbfaf8; stroke-width: 0.5; stroke-linejoin: miter"/>
   </g>
   <g id="patch_60">
    <path d="M 311.332801 853.312789 
L 786.474704 853.312789 
L 786.474704 896.793519 
L 311.332801 896.793519 
z
" clip-path="url(#p8976bd481b)" style="fill: url(#he1f3380b01); stroke: #fbfaf8; stroke-width: 0.5; stroke-linejoin: miter"/>
   </g>
   <g id="patch_61">
    <path d="M 770.555568 917.255039 
L 770.555568 917.255039 
L 770.555568 960.735769 
L 770.555568 960.735769 
z
" clip-path="url(#p8976bd481b)" style="fill: url(#he1f3380b01); stroke: #fbfaf8; stroke-width: 0.5; stroke-linejoin: miter"/>
   </g>
   <g id="patch_62">
    <path d="M 787.289319 981.197289 
L 787.289319 981.197289 
L 787.289319 1024.67802 
L 787.289319 1024.67802 
z
" clip-path="url(#p8976bd481b)" style="fill: url(#he1f3380b01); stroke: #fbfaf8; stroke-width: 0.5; stroke-linejoin: miter"/>
   </g>
   <g id="text_56">
    <text style="font-weight: 700; font-size: 9px; font-family: 'Helvetica Neue'; text-anchor: middle; fill: #14110f" x="548.903753" y="877.379795" transform="rotate(-0 548.903753 877.379795)">79%</text>
   </g>
   <g id="patch_63">
    <path d="M 786.474704 853.312789 
L 810.357355 853.312789 
L 810.357355 896.793519 
L 786.474704 896.793519 
z
" clip-path="url(#p8976bd481b)" style="fill: #c7c0b6; stroke: #fbfaf8; stroke-width: 0.5; stroke-linejoin: miter"/>
   </g>
   <g id="patch_64">
    <path d="M 770.555568 917.255039 
L 803.210227 917.255039 
L 803.210227 960.735769 
L 770.555568 960.735769 
z
" clip-path="url(#p8976bd481b)" style="fill: #c7c0b6; stroke: #fbfaf8; stroke-width: 0.5; stroke-linejoin: miter"/>
   </g>
   <g id="patch_65">
    <path d="M 787.289319 981.197289 
L 807.19644 981.197289 
L 807.19644 1024.67802 
L 787.289319 1024.67802 
z
" clip-path="url(#p8976bd481b)" style="fill: #c7c0b6; stroke: #fbfaf8; stroke-width: 0.5; stroke-linejoin: miter"/>
   </g>
   <g id="text_57">
    <text style="font-weight: 700; font-size: 9px; font-family: 'Helvetica Neue'; text-anchor: middle; fill: #14110f" x="786.882898" y="941.322045" transform="rotate(-0 786.882898 941.322045)">5%</text>
   </g>
   <g id="patch_66">
    <path d="M 810.357355 853.312789 
L 813.536891 853.312789 
L 813.536891 896.793519 
L 810.357355 896.793519 
z
" clip-path="url(#p8976bd481b)" style="fill: #c7c0b6; stroke: #fbfaf8; stroke-width: 0.5; stroke-linejoin: miter"/>
   </g>
   <g id="patch_67">
    <path d="M 803.210227 917.255039 
L 807.777727 917.255039 
L 807.777727 960.735769 
L 803.210227 960.735769 
z
" clip-path="url(#p8976bd481b)" style="fill: #c7c0b6; stroke: #fbfaf8; stroke-width: 0.5; stroke-linejoin: miter"/>
   </g>
   <g id="patch_68">
    <path d="M 807.19644 981.197289 
L 811.671684 981.197289 
L 811.671684 1024.67802 
L 807.19644 1024.67802 
z
" clip-path="url(#p8976bd481b)" style="fill: #c7c0b6; stroke: #fbfaf8; stroke-width: 0.5; stroke-linejoin: miter"/>
   </g>
   <g id="patch_69">
    <path d="M 813.536891 853.312789 
L 814.51243 853.312789 
L 814.51243 896.793519 
L 813.536891 896.793519 
z
" clip-path="url(#p8976bd481b)" style="fill: #c7c0b6; stroke: #fbfaf8; stroke-width: 0.5; stroke-linejoin: miter"/>
   </g>
   <g id="patch_70">
    <path d="M 807.777727 917.255039 
L 814.124773 917.255039 
L 814.124773 960.735769 
L 807.777727 960.735769 
z
" clip-path="url(#p8976bd481b)" style="fill: #c7c0b6; stroke: #fbfaf8; stroke-width: 0.5; stroke-linejoin: miter"/>
   </g>
   <g id="patch_71">
    <path d="M 811.671684 981.197289 
L 814.295103 981.197289 
L 814.295103 1024.67802 
L 811.671684 1024.67802 
z
" clip-path="url(#p8976bd481b)" style="fill: #c7c0b6; stroke: #fbfaf8; stroke-width: 0.5; stroke-linejoin: miter"/>
   </g>
   <g id="patch_72">
    <path d="M 814.51243 853.312789 
L 817.15 853.312789 
L 817.15 896.793519 
L 814.51243 896.793519 
z
" clip-path="url(#p8976bd481b)" style="fill: #c7c0b6; stroke: #fbfaf8; stroke-width: 0.5; stroke-linejoin: miter"/>
   </g>
   <g id="patch_73">
    <path d="M 814.124773 917.255039 
L 817.15 917.255039 
L 817.15 960.735769 
L 814.124773 960.735769 
z
" clip-path="url(#p8976bd481b)" style="fill: #c7c0b6; stroke: #fbfaf8; stroke-width: 0.5; stroke-linejoin: miter"/>
   </g>
   <g id="patch_74">
    <path d="M 814.295103 981.197289 
L 817.15 981.197289 
L 817.15 1024.67802 
L 814.295103 1024.67802 
z
" clip-path="url(#p8976bd481b)" style="fill: #c7c0b6; stroke: #fbfaf8; stroke-width: 0.5; stroke-linejoin: miter"/>
   </g>
   <g id="text_58">
    <text style="font-style: italic; font-size: 8.5px; font-family: 'Helvetica Neue'; text-anchor: end; fill: #938b82" x="817.15" y="1062.003757" transform="rotate(-0 817.15 1062.003757)">As programs advance the ambiguous 'stall' bucket shrinks and biology gets more direct: 79% of Ph3 fails are Ph3-completed-no-approval.</text>
   </g>
   <g id="text_59">
    <text style="font-weight: 700; font-size: 11.5px; font-family: 'Helvetica Neue'; text-anchor: start; fill: #14110f" x="216.85" y="836.744527" transform="rotate(-0 216.85 836.744527)">C. Why they stop, by phase  |  reasons for programs that failed at each stage</text>
   </g>
  </g>
 </g>
 <defs>
  <clipPath id="p5ea504db7a">
   <rect x="216.85" y="24.238281" width="600.3" height="141.376316"/>
  </clipPath>
  <clipPath id="pb25ea104fa">
   <rect x="216.85" y="300.969328" width="600.3" height="408.420467"/>
  </clipPath>
  <clipPath id="p8976bd481b">
   <rect x="216.85" y="844.744527" width="600.3" height="188.501754"/>
  </clipPath>
 </defs>
 <defs>
  <pattern id="habea9022fb" patternUnits="userSpaceOnUse" x="0" y="0" width="72" height="72">
   <rect x="0" y="0" width="73" height="73" fill="#1f6fd0"/>
   <path d="M -36 36 
L 36 -36 
M -32 40 
L 40 -32 
M -28 44 
L 44 -28 
M -24 48 
L 48 -24 
M -20 52 
L 52 -20 
M -16 56 
L 56 -16 
M -12 60 
L 60 -12 
M -8 64 
L 64 -8 
M -4 68 
L 68 -4 
M 0 72 
L 72 0 
M 4 76 
L 76 4 
M 8 80 
L 80 8 
M 12 84 
L 84 12 
M 16 88 
L 88 16 
M 20 92 
L 92 20 
M 24 96 
L 96 24 
M 28 100 
L 100 28 
M 32 104 
L 104 32 
M 36 108 
L 108 36 
" style="fill: #fbfaf8; stroke: #fbfaf8; stroke-width: 1.0; stroke-linecap: butt; stroke-linejoin: miter"/>
  </pattern>
  <pattern id="he1f3380b01" patternUnits="userSpaceOnUse" x="0" y="0" width="72" height="72">
   <rect x="0" y="0" width="73" height="73" fill="#c7c0b6"/>
   <path d="M -36 36 
L 36 -36 
M -32 40 
L 40 -32 
M -28 44 
L 44 -28 
M -24 48 
L 48 -24 
M -20 52 
L 52 -20 
M -16 56 
L 56 -16 
M -12 60 
L 60 -12 
M -8 64 
L 64 -8 
M -4 68 
L 68 -4 
M 0 72 
L 72 0 
M 4 76 
L 76 4 
M 8 80 
L 80 8 
M 12 84 
L 84 12 
M 16 88 
L 88 16 
M 20 92 
L 92 20 
M 24 96 
L 96 24 
M 28 100 
L 100 28 
M 32 104 
L 104 32 
M 36 108 
L 108 36 
" style="fill: #fbfaf8; stroke: #fbfaf8; stroke-width: 1.0; stroke-linecap: butt; stroke-linejoin: miter"/>
  </pattern>
 </defs>
</svg>
